<svg xmlns="http://www.w3.org/2000/svg" data-name="Layer 1" viewBox="0 0 829 1303">
  <ellipse cx="785" cy="683.5" fill="#affff7" rx="44" ry="44.5"/>
  <path fill="#96caed" d="M781.31 718.08a39.99 39.99 0 0032.3-23.15 42.88 42.88 0 00-.23-37.57.79.79 0 011.24-.93c10.78 11.5 14.88 29.2 7.54 46.2a40.16 40.16 0 01-64.53 13.57 1.32 1.32 0 011.42-2.18 40.54 40.54 0 0022.26 4.06z" opacity=".54" style="isolation:isolate"/>
  <circle cx="765.91" cy="657.57" r="6.92" fill="#fafdff"/>
  <path fill="#fafdff" d="M754.76 699.74h.05a4.2 4.2 0 004.18-4.18c-2.03-7.9-2.78-15.56 0-22.6a4.2 4.2 0 00-4.18-4.18h-.05c-1.31 0-3.2.76-4.18 4.18a44.89 44.89 0 000 22.6c.93 2.69 1.88 4.18 4.18 4.18z"/>
  <g data-name="buble">
    <ellipse cx="629" cy="937" fill="#affff7" rx="62" ry="63"/>
    <path fill="#96caed" d="M633.95 985.25a56.35 56.35 0 01-45.52-32.62c-8.52-18.4-7.4-37.54.33-52.93a1.1 1.1 0 00-1.76-1.32c-15.18 16.19-20.96 41.15-10.63 65.08 8.22 19.03 25.87 32.23 46.01 34.21a56.37 56.37 0 0044.93-15.08c1.52-1.44-.15-4-2-3.06a57.12 57.12 0 01-31.36 5.72z" opacity=".54" style="isolation:isolate"/>
    <circle cx="655.65" cy="899.98" r="9.75" fill="#fafdff"/>
    <path fill="#fafdff" d="M671.35 959.4h-.06a5.91 5.91 0 01-5.9-5.89c2.87-11.12 3.92-21.93 0-31.84a5.91 5.91 0 015.9-5.9h.06c1.85 0 4.53 1.08 5.9 5.9 2.5 8.79 2.9 20.38 0 31.84-1.32 3.79-2.66 5.9-5.9 5.9z"/>
  </g>
  <g data-name="buble">
    <ellipse cx="464" cy="31.5" fill="#affff7" rx="31" ry="31.5"/>
    <path fill="#96caed" d="M466.7 55.54a28.17 28.17 0 01-22.76-16.31 30.2 30.2 0 01.16-26.47.55.55 0 00-.88-.66 29.86 29.86 0 00-5.31 32.55 28.3 28.3 0 0045.47 9.56.93.93 0 00-1-1.53 28.56 28.56 0 01-15.69 2.86z" opacity=".54" style="isolation:isolate"/>
    <circle cx="477.55" cy="12.91" r="4.87" fill="#fafdff"/>
    <path fill="#fafdff" d="M485.4 42.62h-.03a2.95 2.95 0 01-2.95-2.95c1.43-5.56 1.96-10.96 0-15.92a2.95 2.95 0 012.95-2.95h.03c.92 0 2.26.54 2.94 2.95a31.63 31.63 0 010 15.92c-.65 1.9-1.32 2.95-2.94 2.95z"/>
  </g>
  <g data-name="buble">
    <ellipse cx="688" cy="1186.5" fill="#affff7" rx="25" ry="25.5"/>
    <path fill="#96caed" d="M685.91 1205.53a23 23 0 0018.59-13.32 24.66 24.66 0 00-.14-21.6.45.45 0 01.72-.54 24.38 24.38 0 014.34 26.57 23.1 23.1 0 01-37.13 7.8.76.76 0 01.82-1.24 23.32 23.32 0 0012.8 2.33z" opacity=".54" style="isolation:isolate"/>
    <circle cx="677.05" cy="1170.72" r="3.98" fill="#fafdff"/>
    <path fill="#fafdff" d="M670.65 1194.98h.02a2.41 2.41 0 002.4-2.4c-1.17-4.55-1.6-8.96 0-13a2.41 2.41 0 00-2.4-2.41h-.03c-.75 0-1.85.44-2.4 2.4a25.82 25.82 0 000 13c.53 1.55 1.08 2.41 2.4 2.41z"/>
  </g>
  <g data-name="buble">
    <ellipse cx="771" cy="275.5" fill="#affff7" rx="30" ry="30.5"/>
    <path fill="#96caed" d="M773.54 298.41a27.56 27.56 0 01-22.26-15.95 29.55 29.55 0 01.16-25.9.54.54 0 00-.86-.64 29.2 29.2 0 00-5.2 31.84 27.68 27.68 0 0044.48 9.35.9.9 0 00-.98-1.5 27.94 27.94 0 01-15.34 2.8z" opacity=".54" style="isolation:isolate"/>
    <circle cx="784.16" cy="256.7" r="4.77" fill="#fafdff"/>
    <path fill="#fafdff" d="M791.84 285.77h-.03a2.9 2.9 0 01-2.88-2.88c1.4-5.44 1.91-10.73 0-15.58a2.9 2.9 0 012.88-2.88h.03c.9 0 2.21.53 2.88 2.88a30.94 30.94 0 010 15.58c-.64 1.85-1.3 2.88-2.88 2.88z"/>
  </g>
  <g data-name="buble">
    <ellipse cx="328" cy="1272.5" fill="#affff7" rx="30" ry="30.5"/>
    <path fill="#96caed" d="M330.13 1295.82a27.56 27.56 0 01-22.27-15.96 29.55 29.55 0 01.16-25.89.54.54 0 00-.86-.64 29.2 29.2 0 00-5.2 31.83 27.68 27.68 0 0044.49 9.36.9.9 0 00-.98-1.5 27.94 27.94 0 01-15.35 2.8z" opacity=".54" style="isolation:isolate"/>
    <circle cx="340.74" cy="1254.11" r="4.77" fill="#fafdff"/>
    <path fill="#fafdff" d="M348.42 1283.18h-.03a2.9 2.9 0 01-2.88-2.88c1.4-5.44 1.91-10.73 0-15.58a2.9 2.9 0 012.88-2.88h.03c.9 0 2.21.53 2.88 2.88a30.94 30.94 0 010 15.58c-.64 1.85-1.3 2.88-2.88 2.88z"/>
  </g>
  <g data-name="buble">
    <ellipse cx="30" cy="1069.5" fill="#affff7" rx="30" ry="30.5"/>
    <path fill="#96caed" d="M27.46 1092.82a27.56 27.56 0 0022.26-15.96 29.55 29.55 0 00-.16-25.89.54.54 0 01.86-.64 29.2 29.2 0 015.2 31.83 27.68 27.68 0 01-44.48 9.36.9.9 0 01.97-1.5 27.94 27.94 0 0015.35 2.8z" opacity=".54" style="isolation:isolate"/>
    <circle cx="16.84" cy="1051.11" r="4.77" fill="#fafdff"/>
    <path fill="#fafdff" d="M9.16 1080.18h.03a2.9 2.9 0 002.88-2.88c-1.4-5.44-1.91-10.73 0-15.58a2.9 2.9 0 00-2.88-2.88h-.03c-.9 0-2.21.53-2.88 2.88a30.94 30.94 0 000 15.58c.64 1.85 1.3 2.88 2.88 2.88z"/>
  </g>
</svg>
