<svg xmlns="http://www.w3.org/2000/svg" data-name="Layer 1" viewBox="0 0 1508 1211">
  <ellipse cx="953" cy="726.5" fill="#affff7" rx="44" ry="44.5"/>
  <path style="isolation:isolate" fill="#96caed" d="M956.69 760.34a39.99 39.99 0 01-32.3-23.16 42.88 42.88 0 01.23-37.56.79.79 0 00-1.24-.94c-10.78 11.5-14.88 29.2-7.55 46.2a40.16 40.16 0 0064.54 13.57 1.32 1.32 0 00-1.42-2.17 40.53 40.53 0 01-22.26 4.06z" opacity=".54"/>
  <circle cx="972.09" cy="699.82" r="6.92" fill="#fafdff"/>
  <path fill="#fafdff" d="M983.24 742h-.05a4.2 4.2 0 01-4.18-4.19c2.03-7.9 2.78-15.56 0-22.6a4.2 4.2 0 014.18-4.18h.05c1.3 0 3.2.76 4.18 4.18a44.89 44.89 0 010 22.6c-.93 2.69-1.88 4.18-4.18 4.18z"/>
  <g data-name="buble">
    <ellipse cx="1219" cy="938" fill="#affff7" rx="62" ry="63"/>
    <path style="isolation:isolate" fill="#96caed" d="M1213.8 986.18a56.35 56.35 0 0045.52-32.62c8.52-18.4 7.39-37.54-.33-52.94a1.1 1.1 0 011.75-1.3c15.2 16.18 20.97 41.14 10.63 65.07-8.21 19.03-25.86 32.23-46 34.22a56.37 56.37 0 01-44.94-15.09c-1.51-1.43.15-3.99 2-3.06a57.12 57.12 0 0031.37 5.72z" opacity=".54"/>
    <circle cx="1192.1" cy="900.91" r="9.75" fill="#fafdff"/>
    <path fill="#fafdff" d="M1176.4 960.33h.06a5.91 5.91 0 005.89-5.89c-2.86-11.13-3.92-21.93 0-31.85a5.91 5.91 0 00-5.9-5.89h-.06c-1.85 0-4.52 1.08-5.89 5.9-2.5 8.78-2.9 20.38 0 31.84 1.31 3.79 2.65 5.9 5.9 5.9z"/>
  </g>
  <g data-name="buble">
    <ellipse cx="1157" cy="135.5" fill="#affff7" rx="31" ry="31.5"/>
    <path style="isolation:isolate" fill="#96caed" d="M1154.4 159.34a28.17 28.17 0 0022.76-16.32 30.2 30.2 0 00-.16-26.46.55.55 0 01.87-.66 29.86 29.86 0 015.32 32.54 28.3 28.3 0 01-45.47 9.57.93.93 0 011-1.53 28.56 28.56 0 0015.68 2.86z" opacity=".54"/>
    <circle cx="1143.55" cy="116.7" r="4.87" fill="#fafdff"/>
    <path fill="#fafdff" d="M1135.7 146.42h.03a2.95 2.95 0 002.94-2.95c-1.43-5.56-1.95-10.97 0-15.92a2.95 2.95 0 00-2.94-2.95h-.03c-.93 0-2.27.54-2.95 2.95a31.62 31.62 0 000 15.92c.66 1.9 1.33 2.95 2.95 2.95z"/>
  </g>
  <g data-name="buble">
    <ellipse cx="142" cy="256.5" fill="#affff7" rx="20" ry="20.5"/>
    <path style="isolation:isolate" fill="#96caed" d="M140.48 272.01a18.34 18.34 0 0014.81-10.61 19.66 19.66 0 00-.1-17.23.36.36 0 01.57-.42 19.43 19.43 0 013.46 21.18 18.41 18.41 0 01-29.6 6.22.6.6 0 01.66-1 18.59 18.59 0 0010.2 1.86z" opacity=".54"/>
    <circle cx="133.42" cy="244.27" r="3.17" fill="#fafdff"/>
    <path fill="#fafdff" d="M128.31 263.6h.02a1.92 1.92 0 001.92-1.91c-.93-3.62-1.28-7.14 0-10.36a1.92 1.92 0 00-1.92-1.92h-.02c-.6 0-1.47.35-1.92 1.92a20.58 20.58 0 000 10.36c.43 1.23.87 1.91 1.92 1.91z"/>
  </g>
  <g data-name="buble">
    <ellipse cx="62" cy="1033.5" fill="#affff7" rx="20" ry="20.5"/>
    <path style="isolation:isolate" fill="#96caed" d="M60.48 1049.01a18.34 18.34 0 0014.81-10.61 19.66 19.66 0 00-.1-17.23.36.36 0 01.57-.42 19.43 19.43 0 013.46 21.18 18.41 18.41 0 01-29.6 6.22.6.6 0 01.65-1 18.59 18.59 0 0010.21 1.86z" opacity=".54"/>
    <circle cx="53.42" cy="1021.27" r="3.17" fill="#fafdff"/>
    <path fill="#fafdff" d="M48.31 1040.6h.02a1.92 1.92 0 001.92-1.91c-.93-3.62-1.28-7.14 0-10.36a1.92 1.92 0 00-1.92-1.92h-.02c-.6 0-1.47.35-1.92 1.92a20.58 20.58 0 000 10.36c.43 1.23.87 1.91 1.92 1.91z"/>
  </g>
  <g data-name="buble">
    <ellipse cx="890" cy="970.5" fill="#affff7" rx="30" ry="30.5"/>
    <path style="isolation:isolate" fill="#96caed" d="M892.54 993.82a27.56 27.56 0 01-22.26-15.96 29.55 29.55 0 01.16-25.89.54.54 0 00-.86-.64 29.2 29.2 0 00-5.2 31.83 27.68 27.68 0 0044.48 9.36.9.9 0 00-.98-1.5 27.94 27.94 0 01-15.34 2.8z" opacity=".54"/>
    <circle cx="903.16" cy="952.11" r="4.77" fill="#fafdff"/>
    <path fill="#fafdff" d="M910.84 981.18h-.03a2.9 2.9 0 01-2.88-2.88c1.4-5.44 1.91-10.73 0-15.58a2.9 2.9 0 012.88-2.88h.03c.9 0 2.21.53 2.88 2.88a30.94 30.94 0 010 15.58c-.64 1.85-1.3 2.88-2.88 2.88z"/>
  </g>
  <g data-name="buble">
    <ellipse cx="252" cy="968.5" fill="#affff7" rx="30" ry="30.5"/>
    <path style="isolation:isolate" fill="#96caed" d="M249.46 991.82a27.56 27.56 0 0022.26-15.96 29.55 29.55 0 00-.16-25.89.54.54 0 01.86-.64 29.2 29.2 0 015.2 31.83 27.68 27.68 0 01-44.48 9.36.9.9 0 01.97-1.5 27.94 27.94 0 0015.35 2.8z" opacity=".54"/>
    <circle cx="238.84" cy="950.11" r="4.77" fill="#fafdff"/>
    <path fill="#fafdff" d="M231.16 979.18h.03a2.9 2.9 0 002.88-2.88c-1.4-5.44-1.91-10.73 0-15.58a2.9 2.9 0 00-2.88-2.88h-.03c-.9 0-2.21.53-2.88 2.88a30.94 30.94 0 000 15.58c.64 1.85 1.3 2.88 2.88 2.88z"/>
  </g>
  <g data-name="buble">
    <ellipse cx="207" cy="1165.5" fill="#affff7" rx="45" ry="45.5"/>
    <path style="isolation:isolate" fill="#96caed" d="M203.19 1200.73a41.34 41.34 0 0033.4-23.94 44.33 44.33 0 00-.24-38.83.81.81 0 011.28-.97c11.15 11.88 15.38 30.2 7.8 47.75a41.52 41.52 0 01-66.73 14.04 1.36 1.36 0 011.47-2.24 41.9 41.9 0 0023.02 4.19z" opacity=".54"/>
    <circle cx="187.26" cy="1138.17" r="7.15" fill="#fafdff"/>
    <path fill="#fafdff" d="M175.74 1181.77h.05a4.34 4.34 0 004.32-4.32c-2.1-8.17-2.87-16.1 0-23.37a4.34 4.34 0 00-4.32-4.32h-.05c-1.36 0-3.32.79-4.32 4.32a46.4 46.4 0 000 23.36c.96 2.78 1.94 4.33 4.32 4.33z"/>
  </g>
  <g data-name="buble">
    <ellipse cx="172" cy="30.5" fill="#affff7" rx="30" ry="30.5"/>
    <path style="isolation:isolate" fill="#96caed" d="M169.46 53.82a27.56 27.56 0 0022.26-15.96 29.55 29.55 0 00-.16-25.89.54.54 0 01.86-.64 29.2 29.2 0 015.2 31.83 27.68 27.68 0 01-44.48 9.36.9.9 0 01.97-1.5 27.94 27.94 0 0015.35 2.8z" opacity=".54"/>
    <circle cx="158.84" cy="12.11" r="4.77" fill="#fafdff"/>
    <path fill="#fafdff" d="M151.16 41.18h.03a2.9 2.9 0 002.88-2.88c-1.4-5.44-1.91-10.73 0-15.58a2.9 2.9 0 00-2.88-2.88h-.03c-.9 0-2.21.53-2.88 2.88a30.94 30.94 0 000 15.58c.64 1.85 1.3 2.88 2.88 2.88z"/>
  </g>
  <g data-name="buble">
    <ellipse cx="1188" cy="1107.5" fill="#affff7" rx="19" ry="19.5"/>
    <path style="isolation:isolate" fill="#96caed" d="M1186.35 1122.64a17.89 17.89 0 0014.45-10.36 19.18 19.18 0 00-.1-16.8.35.35 0 01.55-.42 18.96 18.96 0 013.38 20.66 17.96 17.96 0 01-28.87 6.08.59.59 0 01.63-.98 18.13 18.13 0 009.96 1.82z" opacity=".54"/>
    <circle cx="1179.46" cy="1095.57" r="3.1" fill="#fafdff"/>
    <path fill="#fafdff" d="M1174.47 1114.43h.02a1.88 1.88 0 001.88-1.87c-.91-3.53-1.25-6.96 0-10.1a1.88 1.88 0 00-1.88-1.88h-.02c-.58 0-1.43.34-1.87 1.87a20.08 20.08 0 000 10.11c.42 1.2.85 1.87 1.87 1.87z"/>
  </g>
  <g data-name="buble">
    <ellipse cx="1478" cy="801.5" fill="#affff7" rx="30" ry="30.5"/>
    <path style="isolation:isolate" fill="#96caed" d="M1480.54 824.82a27.56 27.56 0 01-22.26-15.96 29.55 29.55 0 01.16-25.89.54.54 0 00-.86-.64 29.2 29.2 0 00-5.2 31.83 27.68 27.68 0 0044.48 9.36.9.9 0 00-.97-1.5 27.94 27.94 0 01-15.35 2.8z" opacity=".54"/>
    <circle cx="1491.16" cy="783.11" r="4.77" fill="#fafdff"/>
    <path fill="#fafdff" d="M1498.84 812.18h-.03a2.9 2.9 0 01-2.88-2.88c1.4-5.44 1.91-10.73 0-15.58a2.9 2.9 0 012.88-2.88h.03c.9 0 2.21.53 2.88 2.88a30.94 30.94 0 010 15.58c-.64 1.85-1.3 2.88-2.88 2.88z"/>
  </g>
  <g data-name="buble">
    <ellipse cx="30" cy="136.5" fill="#affff7" rx="30" ry="30.5"/>
    <path style="isolation:isolate" fill="#96caed" d="M32.54 159.82a27.56 27.56 0 01-22.26-15.96 29.55 29.55 0 01.16-25.89.54.54 0 00-.86-.64 29.2 29.2 0 00-5.2 31.83 27.68 27.68 0 0044.48 9.36.9.9 0 00-.97-1.5 27.94 27.94 0 01-15.35 2.8z" opacity=".54"/>
    <circle cx="43.16" cy="118.11" r="4.77" fill="#fafdff"/>
    <path fill="#fafdff" d="M50.84 147.18h-.03a2.9 2.9 0 01-2.88-2.88c1.4-5.45 1.91-10.73 0-15.58a2.9 2.9 0 012.88-2.88h.03c.9 0 2.21.52 2.88 2.88a30.94 30.94 0 010 15.58c-.64 1.85-1.3 2.88-2.88 2.88z"/>
  </g>
</svg>
