<svg xmlns="http://www.w3.org/2000/svg" data-name="Layer 1" viewBox="0 0 775 485">
  <circle cx="33" cy="33" r="33" fill="#affff7"/>
  <path fill="#96caed" d="M35.5 58.6a29.78 29.78 0 01-24.04-17.24 31.93 31.93 0 01.17-27.98.58.58 0 00-.93-.69A31.55 31.55 0 005.1 47.1a29.9 29.9 0 0048.05 10.1.98.98 0 00-1.05-1.61A30.18 30.18 0 0135.5 58.6z" opacity=".54" style="isolation:isolate"/>
  <circle cx="46.98" cy="13.54" r="5.15" fill="#fafdff"/>
  <path fill="#fafdff" d="M55.28 44.94h-.04a3.12 3.12 0 01-3.1-3.11c1.5-5.88 2.06-11.6 0-16.83a3.12 3.12 0 013.1-3.12h.04c.97 0 2.39.57 3.11 3.12a33.42 33.42 0 010 16.83c-.7 2-1.4 3.11-3.11 3.11z"/>
  <g data-name="buble">
    <ellipse cx="249" cy="246" fill="#affff7" rx="62" ry="63"/>
    <path fill="#96caed" d="M243.8 294.07a56.35 56.35 0 0045.52-32.62c8.52-18.4 7.39-37.54-.33-52.94a1.1 1.1 0 011.75-1.31c15.2 16.19 20.97 41.15 10.64 65.08-8.22 19.03-25.87 32.23-46.02 34.22a56.37 56.37 0 01-44.93-15.09c-1.51-1.43.15-4 2-3.06a57.12 57.12 0 0031.37 5.72z" opacity=".54" style="isolation:isolate"/>
    <circle cx="222.1" cy="208.8" r="9.75" fill="#fafdff"/>
    <path fill="#fafdff" d="M206.4 268.22h.06a5.91 5.91 0 005.89-5.9c-2.86-11.12-3.92-21.92 0-31.84a5.91 5.91 0 00-5.9-5.89h-.06c-1.85 0-4.52 1.08-5.89 5.9-2.5 8.78-2.9 20.38 0 31.84 1.31 3.79 2.65 5.9 5.9 5.9z"/>
  </g>
  <g data-name="buble">
    <ellipse cx="146" cy="454.5" fill="#affff7" rx="30" ry="30.5"/>
    <path fill="#96caed" d="M148.54 477.36a27.56 27.56 0 01-22.26-15.96 29.55 29.55 0 01.16-25.9.54.54 0 00-.86-.63 29.2 29.2 0 00-5.2 31.83 27.68 27.68 0 0044.48 9.36.9.9 0 00-.98-1.5 27.94 27.94 0 01-15.34 2.8z" opacity=".54" style="isolation:isolate"/>
    <circle cx="159.16" cy="435.65" r="4.77" fill="#fafdff"/>
    <path fill="#fafdff" d="M166.84 464.72h-.03a2.9 2.9 0 01-2.88-2.89c1.4-5.44 1.91-10.72 0-15.57a2.9 2.9 0 012.88-2.88h.03c.9 0 2.21.52 2.88 2.88a30.94 30.94 0 010 15.57c-.64 1.86-1.3 2.89-2.88 2.89z"/>
  </g>
  <g data-name="buble">
    <circle cx="463" cy="332" r="23" fill="#affff7"/>
    <path fill="#96caed" d="M460.9 349.96a20.98 20.98 0 0016.94-12.14 22.49 22.49 0 00-.12-19.7.41.41 0 01.65-.5 22.23 22.23 0 013.96 24.23 21.07 21.07 0 01-33.86 7.12.69.69 0 01.75-1.14 21.26 21.26 0 0011.68 2.13z" opacity=".54" style="isolation:isolate"/>
    <circle cx="452.82" cy="318.22" r="3.63" fill="#fafdff"/>
    <path fill="#fafdff" d="M446.97 340.34h.02a2.2 2.2 0 002.2-2.2c-1.06-4.14-1.46-8.16 0-11.85a2.2 2.2 0 00-2.2-2.2h-.02c-.69 0-1.68.4-2.2 2.2a23.54 23.54 0 000 11.86c.5 1.4 1 2.19 2.2 2.19z"/>
  </g>
  <g data-name="buble">
    <ellipse cx="745" cy="441.5" fill="#affff7" rx="30" ry="30.5"/>
    <path fill="#96caed" d="M747.54 464.82a27.56 27.56 0 01-22.26-15.96 29.55 29.55 0 01.16-25.89.54.54 0 00-.86-.64 29.2 29.2 0 00-5.2 31.83 27.68 27.68 0 0044.48 9.36.9.9 0 00-.98-1.5 27.94 27.94 0 01-15.34 2.8z" opacity=".54" style="isolation:isolate"/>
    <circle cx="758.16" cy="423.11" r="4.77" fill="#fafdff"/>
    <path fill="#fafdff" d="M765.84 452.18h-.03a2.9 2.9 0 01-2.88-2.88c1.4-5.45 1.91-10.73 0-15.58a2.9 2.9 0 012.88-2.88h.03c.9 0 2.21.52 2.88 2.88a30.94 30.94 0 010 15.58c-.64 1.85-1.3 2.88-2.88 2.88z"/>
  </g>
</svg>
