<svg xmlns="http://www.w3.org/2000/svg" data-name="Layer 1" viewBox="0 0 375 1198">
  <ellipse cx="114" cy="300.5" fill="#affff7" rx="31" ry="31.5"/>
  <path fill="#96caed" d="M115.66 276.31a28.17 28.17 0 00-22.75 16.32 30.2 30.2 0 00.16 26.46.55.55 0 01-.88.66 29.86 29.86 0 01-5.31-32.54 28.3 28.3 0 0145.47-9.56.93.93 0 01-1 1.53 28.56 28.56 0 00-15.69-2.87z" opacity=".54" style="isolation:isolate"/>
  <circle cx="126.52" cy="318.95" r="4.87" fill="#fafdff"/>
  <path fill="#fafdff" d="M134.37 289.24h-.03a2.95 2.95 0 00-2.95 2.94c1.43 5.57 1.96 10.97 0 15.93a2.95 2.95 0 002.95 2.94h.03c.92 0 2.26-.54 2.94-2.94a31.62 31.62 0 000-15.93c-.65-1.89-1.32-2.94-2.94-2.94z"/>
  <g data-name="buble">
    <circle cx="209" cy="690" r="30" fill="#affff7"/>
    <path fill="#96caed" d="M211.55 665.66a27.26 27.26 0 00-22.02 15.78 29.23 29.23 0 00.16 25.62.54.54 0 01-.85.63 28.9 28.9 0 01-5.15-31.49 27.38 27.38 0 0144-9.26.9.9 0 01-.96 1.49 27.64 27.64 0 00-15.18-2.77z" opacity=".54" style="isolation:isolate"/>
    <circle cx="222.05" cy="706.92" r="4.72" fill="#fafdff"/>
    <path fill="#fafdff" d="M229.65 678.16h-.03a2.86 2.86 0 00-2.85 2.85c1.38 5.39 1.9 10.62 0 15.41a2.86 2.86 0 002.85 2.85h.03c.9 0 2.19-.52 2.85-2.85a30.6 30.6 0 000-15.4c-.63-1.84-1.28-2.86-2.85-2.86z"/>
  </g>
  <g data-name="buble">
    <ellipse cx="20" cy="833.5" fill="#affff7" rx="20" ry="20.5"/>
    <path fill="#96caed" d="M18.07 817.54a18.37 18.37 0 0114.84 10.64 19.7 19.7 0 01-.1 17.26.36.36 0 00.56.43 19.47 19.47 0 003.47-21.22 18.45 18.45 0 00-29.65-6.24.6.6 0 00.65 1 18.62 18.62 0 0110.23-1.87z" opacity=".54" style="isolation:isolate"/>
    <circle cx="10.99" cy="845.35" r="3.18" fill="#fafdff"/>
    <path fill="#fafdff" d="M5.87 825.97h.02a1.93 1.93 0 011.92 1.92c-.93 3.63-1.28 7.15 0 10.39a1.93 1.93 0 01-1.92 1.92h-.02c-.6 0-1.48-.35-1.92-1.92a20.62 20.62 0 010-10.39c.42-1.23.86-1.92 1.92-1.92z"/>
  </g>
  <g data-name="buble">
    <ellipse cx="250" cy="19.5" fill="#affff7" rx="19" ry="19.5"/>
    <path fill="#96caed" d="M252.42 4.15a17.89 17.89 0 00-14.46 10.35 19.18 19.18 0 00.1 16.8.35.35 0 01-.55.42 18.96 18.96 0 01-3.38-20.66A17.97 17.97 0 01263 5a.59.59 0 01-.63.97 18.13 18.13 0 00-9.95-1.81z" opacity=".54" style="isolation:isolate"/>
    <circle cx="259.31" cy="31.22" r="3.1" fill="#fafdff"/>
    <path fill="#fafdff" d="M264.3 12.35h-.03a1.88 1.88 0 00-1.87 1.87c.9 3.54 1.24 6.97 0 10.11a1.88 1.88 0 001.87 1.88h.02c.59 0 1.44-.35 1.87-1.88a20.08 20.08 0 000-10.1c-.41-1.2-.84-1.88-1.87-1.88z"/>
  </g>
  <g data-name="buble">
    <ellipse cx="312" cy="358.5" fill="#affff7" rx="19" ry="19.5"/>
    <path fill="#96caed" d="M314.42 342.62a17.89 17.89 0 00-14.46 10.35 19.18 19.18 0 00.1 16.8.35.35 0 01-.55.42 18.96 18.96 0 01-3.38-20.66 17.97 17.97 0 0128.87-6.07.59.59 0 01-.63.97 18.13 18.13 0 00-9.95-1.81z" opacity=".54" style="isolation:isolate"/>
    <circle cx="321.31" cy="369.69" r="3.1" fill="#fafdff"/>
    <path fill="#fafdff" d="M326.3 350.82h-.03a1.88 1.88 0 00-1.87 1.87c.9 3.53 1.24 6.96 0 10.11a1.88 1.88 0 001.87 1.87h.02c.59 0 1.44-.34 1.87-1.87a20.08 20.08 0 000-10.1c-.41-1.2-.84-1.88-1.87-1.88z"/>
  </g>
  <g data-name="buble">
    <ellipse cx="353" cy="1175.5" fill="#affff7" rx="22" ry="22.5"/>
    <path fill="#96caed" d="M351.48 1159a20.51 20.51 0 0116.56 11.87 22 22 0 01-.11 19.26.4.4 0 00.63.48 21.73 21.73 0 003.87-23.69 20.6 20.6 0 00-33.1-6.96.68.68 0 00.73 1.11 20.79 20.79 0 0111.42-2.08z" opacity=".54" style="isolation:isolate"/>
    <circle cx="343.58" cy="1190.03" r="3.55" fill="#fafdff"/>
    <path fill="#fafdff" d="M337.86 1168.4h.03a2.15 2.15 0 012.14 2.14c-1.04 4.05-1.42 7.98 0 11.6a2.15 2.15 0 01-2.14 2.14h-.03c-.67 0-1.64-.4-2.14-2.15a23.02 23.02 0 010-11.59c.47-1.38.96-2.14 2.14-2.14z"/>
  </g>
  <g data-name="buble">
    <ellipse cx="167" cy="1111.5" fill="#affff7" rx="22" ry="22.5"/>
    <path fill="#96caed" d="M165.48 1095a20.51 20.51 0 0116.57 11.87 22 22 0 01-.12 19.26.4.4 0 00.63.48 21.73 21.73 0 003.87-23.69 20.6 20.6 0 00-33.1-6.96.68.68 0 00.73 1.11 20.79 20.79 0 0111.42-2.08z" opacity=".54" style="isolation:isolate"/>
    <circle cx="157.58" cy="1126.03" r="3.55" fill="#fafdff"/>
    <path fill="#fafdff" d="M151.86 1104.4h.02a2.15 2.15 0 012.15 2.14c-1.04 4.05-1.43 7.98 0 11.6a2.15 2.15 0 01-2.15 2.14h-.02c-.67 0-1.65-.4-2.14-2.15a23.02 23.02 0 010-11.59c.47-1.38.96-2.14 2.14-2.14z"/>
  </g>
</svg>
