<svg xmlns="http://www.w3.org/2000/svg" data-name="Layer 1" viewBox="0 0 375 1213"><ellipse cx="359" cy="249.5" fill="#affff7" rx="16" ry="16.5"/><path style="isolation:isolate" fill="#96caed" d="M360.52 261.77a14.54 14.54 0 01-11.75-8.42 15.6 15.6 0 01.09-13.66.29.29 0 00-.45-.34 15.41 15.41 0 00-2.75 16.8 14.6 14.6 0 0023.47 4.93.48.48 0 00-.51-.79 14.74 14.74 0 01-8.1 1.48z" opacity=".54"/><circle cx="366.12" cy="239.76" r="2.52" fill="#fafdff"/><path fill="#fafdff" d="M370.18 255.1h-.02a1.52 1.52 0 01-1.52-1.52c.74-2.88 1-5.66 0-8.22a1.52 1.52 0 011.52-1.52h.01c.48 0 1.17.27 1.53 1.52a16.32 16.32 0 010 8.22c-.34.97-.69 1.52-1.52 1.52z"/><g data-name="buble"><ellipse cx="268" cy="1099.5" fill="#affff7" rx="31" ry="31.5"/><path style="isolation:isolate" fill="#96caed" d="M265.96 1123.7a28.17 28.17 0 0022.76-16.31 30.2 30.2 0 00-.16-26.47.55.55 0 01.88-.65 29.86 29.86 0 015.31 32.54 28.3 28.3 0 01-45.47 9.56.93.93 0 011-1.53 28.56 28.56 0 0015.68 2.86z" opacity=".54"/><circle cx="255.11" cy="1081.07" r="4.87" fill="#fafdff"/><path fill="#fafdff" d="M247.26 1110.78h.03a2.95 2.95 0 002.95-2.95c-1.43-5.56-1.96-10.96 0-15.92a2.95 2.95 0 00-2.95-2.95h-.03c-.93 0-2.26.54-2.95 2.95a31.63 31.63 0 000 15.92c.66 1.9 1.33 2.95 2.95 2.95z"/></g><g data-name="buble"><circle cx="160" cy="868" r="30" fill="#affff7"/><path style="isolation:isolate" fill="#96caed" d="M157.86 891.42a27.27 27.27 0 0022.02-15.78 29.23 29.23 0 00-.15-25.62.54.54 0 01.84-.63 28.9 28.9 0 015.15 31.49 27.38 27.38 0 01-44 9.25.9.9 0 01.97-1.48 27.64 27.64 0 0015.17 2.77z" opacity=".54"/><circle cx="147.36" cy="850.16" r="4.72" fill="#fafdff"/><path fill="#fafdff" d="M139.76 878.92h.03a2.86 2.86 0 002.85-2.85c-1.38-5.39-1.9-10.62 0-15.41a2.86 2.86 0 00-2.85-2.85h-.03c-.9 0-2.19.52-2.85 2.85a30.6 30.6 0 000 15.4c.63 1.84 1.28 2.86 2.85 2.86z"/></g><g data-name="buble"><ellipse cx="106" cy="25.5" fill="#affff7" rx="25" ry="25.5"/><path style="isolation:isolate" fill="#96caed" d="M102.7 44.73a22.72 22.72 0 0018.34-13.16 24.36 24.36 0 00-.13-21.34.45.45 0 01.7-.53 24.08 24.08 0 014.3 26.24 22.82 22.82 0 01-36.67 7.71.75.75 0 01.8-1.23 23.03 23.03 0 0012.65 2.3z" opacity=".54"/><circle cx="93.94" cy="10.34" r="3.93" fill="#fafdff"/><path fill="#fafdff" d="M87.6 34.3h.03a2.38 2.38 0 002.38-2.37c-1.15-4.49-1.58-8.84 0-12.84a2.38 2.38 0 00-2.38-2.38h-.02c-.75 0-1.83.44-2.38 2.38a25.5 25.5 0 000 12.84c.53 1.52 1.07 2.37 2.38 2.37z"/></g><g data-name="buble"><ellipse cx="323" cy="784.5" fill="#affff7" rx="20" ry="20.5"/><path style="isolation:isolate" fill="#96caed" d="M324.94 800.24a18.37 18.37 0 01-14.85-10.64 19.7 19.7 0 01.1-17.26.36.36 0 00-.56-.43 19.47 19.47 0 00-3.47 21.22 18.45 18.45 0 0029.65 6.24.6.6 0 00-.65-1 18.62 18.62 0 01-10.22 1.87z" opacity=".54"/><circle cx="332.01" cy="772.43" r="3.18" fill="#fafdff"/><path fill="#fafdff" d="M337.13 791.81h-.02a1.93 1.93 0 01-1.92-1.92c.93-3.63 1.28-7.15 0-10.39a1.93 1.93 0 011.92-1.92h.02c.6 0 1.48.35 1.92 1.92a20.62 20.62 0 010 10.39c-.43 1.24-.86 1.92-1.92 1.92z"/></g><g data-name="buble"><ellipse cx="30" cy="371.5" fill="#affff7" rx="30" ry="30.5"/><path style="isolation:isolate" fill="#96caed" d="M26.99 395.13a27.56 27.56 0 0022.26-15.95 29.55 29.55 0 00-.16-25.9.54.54 0 01.86-.64 29.2 29.2 0 015.2 31.84 27.68 27.68 0 01-44.48 9.35.9.9 0 01.98-1.5 27.94 27.94 0 0015.34 2.8z" opacity=".54"/><circle cx="16.37" cy="353.42" r="4.77" fill="#fafdff"/><path fill="#fafdff" d="M8.7 382.5h.02a2.9 2.9 0 002.89-2.9c-1.4-5.43-1.92-10.72 0-15.57a2.9 2.9 0 00-2.89-2.88H8.7c-.9 0-2.21.53-2.88 2.88a30.94 30.94 0 000 15.58c.64 1.85 1.3 2.88 2.88 2.88z"/></g><g data-name="buble"><ellipse cx="60" cy="1193.5" fill="#affff7" rx="19" ry="19.5"/><path style="isolation:isolate" fill="#96caed" d="M57.76 1208.86a17.89 17.89 0 0014.45-10.36 19.18 19.18 0 00-.1-16.8.35.35 0 01.55-.41 18.96 18.96 0 013.38 20.66 17.97 17.97 0 01-28.87 6.07.59.59 0 01.63-.97 18.13 18.13 0 009.96 1.81z" opacity=".54"/><circle cx="50.87" cy="1181.79" r="3.1" fill="#fafdff"/><path fill="#fafdff" d="M45.88 1200.66h.02a1.88 1.88 0 001.87-1.87c-.9-3.54-1.24-6.97 0-10.11a1.88 1.88 0 00-1.87-1.87h-.02c-.59 0-1.43.34-1.87 1.87a20.08 20.08 0 000 10.1c.42 1.2.84 1.88 1.87 1.88z"/></g><g data-name="buble"><ellipse cx="169" cy="522.5" fill="#affff7" rx="22" ry="22.5"/><path style="isolation:isolate" fill="#96caed" d="M170.52 539.4a20.51 20.51 0 01-16.57-11.88 22 22 0 01.12-19.27.4.4 0 00-.63-.48 21.73 21.73 0 00-3.87 23.7 20.6 20.6 0 0033.1 6.95.68.68 0 00-.73-1.11 20.79 20.79 0 01-11.42 2.08z" opacity=".54"/><circle cx="178.42" cy="508.36" r="3.55" fill="#fafdff"/><path fill="#fafdff" d="M184.14 529.99h-.02a2.15 2.15 0 01-2.15-2.15c1.04-4.05 1.43-7.98 0-11.59a2.15 2.15 0 012.15-2.15h.02c.67 0 1.65.4 2.14 2.15a23.02 23.02 0 010 11.6c-.47 1.37-.96 2.14-2.14 2.14z"/></g></svg>