<svg xmlns="http://www.w3.org/2000/svg" viewBox="0 0 250 250">
  <g data-name="cultural exchange">
    <path fill="#ff3e5b" d="M21.82 94.63l8.83 2.15-21.22 25.5L0 89.33l6.07 1.47c15.2-46.97 47.2-75.97 83.3-88.81l3.72 16.88c-14.98 6.34-53.07 21.9-71.27 75.76z"/>
    <path fill="#1c699c" d="M85.43 226.33l1.98-9.57 23.52 23.01L80.53 250l1.36-6.58C38.6 226.93 11.84 192.22 0 153.1l15.57-4.04c5.85 16.24 20.2 57.55 69.86 77.28z"/>
    <path fill="#affff7" d="M228.16 157.04l-8.84-2.1 21.12-25.61 9.56 32.9-6.07-1.43c-15.02 47.04-46.9 76.19-82.94 89.2l-3.8-16.87c14.96-6.4 52.99-22.15 70.97-76.09z"/>
    <path fill="#96caed" d="M164.87 23.64l-2.02 9.57-23.43-23.13L169.85 0l-1.38 6.57C211.72 23.27 238.32 58.1 250 97.3l-15.59 3.96c-5.78-16.26-19.96-57.64-69.54-77.6z"/>
    <g>
      <path fill="#ff3e5b" d="M198.83 168.13l-62.08-.2c.02-8.08 10.2-13.48 19.9-15.96a21.32 21.32 0 01-7.93-16.9c.03-11.47 8.63-20.75 19.22-20.71 10.58.03 19.13 9.36 19.1 20.83a21.32 21.32 0 01-8.02 16.85c9.68 2.54 19.83 8 19.8 16.09z"/>
      <path fill="#96caed" d="M158.67 130.11H96.6c0-8.08 10.16-13.51 19.87-16.02a21.31 21.31 0 01-7.99-16.88c0-11.47 8.58-20.77 19.17-20.77 10.58 0 19.15 9.3 19.15 20.77a21.33 21.33 0 01-7.97 16.88c9.7 2.5 19.85 7.94 19.85 16.02z"/>
      <path fill="#affff7" d="M119.36 168.03H57.27c0-8.08 10.17-13.52 19.87-16.03a21.31 21.31 0 01-7.98-16.87c0-11.47 8.57-20.77 19.16-20.77 10.58 0 19.16 9.3 19.16 20.77A21.33 21.33 0 0199.5 152c9.7 2.51 19.86 7.95 19.86 16.03z"/>
    </g>
  </g>
</svg>
