<svg xmlns="http://www.w3.org/2000/svg" viewBox="0 0 250 250">
  <path fill="#ff3e5b" d="M117.55 59.4c.94-2.93 1.68-5.65 2.7-8.26.7-1.81.27-2.88-1.29-3.94a69.85 69.85 0 01-6.17-4.78c-.57-.48-.74-1.43-1.1-2.17a6.9 6.9 0 012.24-1.01 69.38 69.38 0 017.6-.04c1.93.1 2.82-.64 3.3-2.48a56.5 56.5 0 012.32-6.8c.25-.63 1.06-1.04 1.6-1.56.48.53 1.15.98 1.38 1.6.9 2.44 1.73 4.9 2.44 7.4a2.19 2.19 0 002.49 1.84c2.74-.06 5.49-.1 8.22.01.74.04 1.88.55 2.07 1.1a2.64 2.64 0 01-.94 2.16c-2.15 1.8-4.41 3.48-6.69 5.13a2.34 2.34 0 00-.93 3.02c.86 2.52 1.74 5.05 2.46 7.62a6.94 6.94 0 01-.23 2.4 7.44 7.44 0 01-2.4-.58 71.47 71.47 0 01-6.14-4.47c-1.39-1.15-2.45-1-3.78.06-2.1 1.66-4.29 3.2-6.5 4.7a2.47 2.47 0 01-1.86.32c-.4-.12-.59-.9-.8-1.26z"/>
  <path fill="#1c699c" d="M100.08 201.64l-.73 5.23c-3.45-1.6-6.75-2.88-9.83-4.57-22.7-12.49-37.08-31.32-42.88-56.63a8.95 8.95 0 01-.27-1.41c-.09-1.42.6-2.63 1.93-2.7a4.71 4.71 0 012.85 1.4c.47.42.46 1.4.64 2.12 6.27 26.45 22.07 44.91 46.82 55.89l1.47.67zM157.85 206.61c-.8-4.89-.75-4.8 3.49-6.84 23.2-11.2 37.96-29.25 44.04-54.33.17-.67.27-1.35.47-2a2.43 2.43 0 012.9-1.98 2.39 2.39 0 012.02 3.05 53.61 53.61 0 01-1.28 5.6c-7.79 26.78-24.66 45.43-50.37 56.14a12.01 12.01 0 01-1.27.36zM212.4 126.24c0 .31.02 1.07-.01 1.82-.06 1.59-.82 2.64-2.48 2.68-1.66.04-2.45-.98-2.58-2.57-.35-4.09-.45-8.22-1.1-12.26-3.04-19.07-12-34.87-26.6-47.49-.73-.62-1.49-1.21-2.2-1.85-1.21-1.1-1.72-2.4-.52-3.77a2.45 2.45 0 013.81-.1c3.44 3.14 7.06 6.13 10.15 9.58 13.66 15.2 20.68 33.13 21.52 53.96zM44.9 125.13c1.42-25.36 11.76-46.22 31.5-62.32 1.5-1.23 3.03-1.17 3.99.02 1 1.26.73 2.69-.95 4.05a78.5 78.5 0 00-29.46 58.68c-.04.9 0 1.79-.06 2.67a2.39 2.39 0 01-2.63 2.53 2.34 2.34 0 01-2.39-2.55c-.04-1.02 0-2.05 0-3.08z"/>
  <path fill="#ff3e5b" d="M97.94 61.03a4.76 4.76 0 01-1-1.15 7.63 7.63 0 00-4.18-4.28c-.5-.23-1.2-.87-1.15-1.22a2.26 2.26 0 011.17-1.43 7.74 7.74 0 004.1-4.11 2.17 2.17 0 011.44-1.13c.38-.05 1.03.63 1.24 1.12a7.82 7.82 0 004.27 4.2c1.48.65 1.48 1.8 0 2.47a7.67 7.67 0 00-4.34 4.38l-.63 1.76zM159.29 47.27c.55.58 1.04.89 1.23 1.32a8.01 8.01 0 004.34 4.42 1.81 1.81 0 011 1.32 1.94 1.94 0 01-1.1 1.25 7.67 7.67 0 00-4.11 4.1c-.22.49-.87 1.16-1.24 1.1a2.2 2.2 0 01-1.44-1.12 7.88 7.88 0 00-4.14-4.08 1.9 1.9 0 01-1.05-1.29 1.84 1.84 0 011-1.3 7.77 7.77 0 004.26-4.24 7.38 7.38 0 011.25-1.48z"/>
  <path fill="#1c699c" d="M134.2 206.87l.66 4.94h-12.5c.25-1.76.46-3.33.67-4.94z"/>
  <g>
    <path fill="#1c699c" d="M153.3 162.55c-.9-6.07-1.78-11.68-2.55-17.3a3.72 3.72 0 01.6-2.22c.9-1.45 1.13-2.95 0-4.19-2.21-2.4-4.62-4.63-7.38-7.36.07 1.25.05 1.95.15 2.63 1.55 11.06 3.15 22.1 4.67 33.16 1.9 13.84 3.73 27.68 5.58 41.53.72 5.36 1.46 10.72 2.1 16.09.31 2.52-.2 3.07-2.75 3.1-3.42.06-6.85-.03-10.28.04-1.85.03-2.73-.77-2.98-2.6q-2.45-18.11-4.97-36.22c-.45-3.25-.85-6.52-1.34-9.77-.5-3.32-2.62-5.27-5.57-5.23-3.05.04-5.03 1.88-5.5 5.26q-3.11 22.38-6.17 44.76c-.5 3.6-.7 3.83-4.37 3.81-3.02-.02-6.03.01-9.05-.01-2.55-.02-3.14-.8-2.8-3.29 2-14.86 3.96-29.72 6-44.58 1.36-10.04 2.86-20.06 4.26-30.1.83-5.95 1.6-11.91 2.47-18.4a14.98 14.98 0 00-1.63 1.14c-1.8 1.78-3.61 3.56-5.37 5.38-1.62 1.69-1.68 3.04-.47 4.98a3.06 3.06 0 01.54 1.83c-.74 5.43-1.55 10.84-2.36 16.26a8.85 8.85 0 01-.43 1.24c-4.24-4-8.66-7.55-12.32-11.75a15.04 15.04 0 01.64-20.45c4.85-5.09 9.42-10.55 15.6-14.2a29 29 0 0114.6-4.34 146.14 146.14 0 0116 .4c7.04.72 12.97 4.12 18.02 9.05 2.7 2.63 5.38 5.28 8 7.98 7.19 7.37 6.85 17.18-.78 24.1-3.3 2.98-6.56 5.99-10.15 9.27zm-29.13-43.41a19.42 19.42 0 001.57 2.18 4.97 4.97 0 011.2 5.38c-1.27 4.54-2.25 9.17-3.24 13.78a2.99 2.99 0 00.33 2.36c3.66 3.49 4.52 3.45 8.59.68a2.44 2.44 0 001.05-3.1c-1.21-4.85-2.3-9.72-3.53-14.56a3.63 3.63 0 01.79-3.75 25.25 25.25 0 002.05-2.97zM143.83 90.58a15.25 15.25 0 11-15.33-15.2 15.26 15.26 0 0115.33 15.2zm-15.17.03v.1c-1.44 0-2.88-.03-4.32 0-2.1.05-2.65.88-1.91 2.87a6.66 6.66 0 006.46 4.19 6.74 6.74 0 006.06-4.77c.43-1.56-.1-2.39-1.77-2.39h-4.52z"/>
    <path fill="#ff3e5b" d="M124.17 119.14h8.8a25.25 25.25 0 01-2.04 2.97 3.63 3.63 0 00-.8 3.75c1.23 4.84 2.33 9.71 3.54 14.56a2.44 2.44 0 01-1.05 3.1c-4.07 2.77-4.93 2.81-8.59-.68a2.99 2.99 0 01-.33-2.36c1-4.61 1.97-9.24 3.23-13.78a4.97 4.97 0 00-1.2-5.38 19.42 19.42 0 01-1.56-2.18z"/>
    <path fill="#a4fcfc" d="M128.66 90.61h4.52c1.67 0 2.2.83 1.77 2.4a6.74 6.74 0 01-6.06 4.76 6.66 6.66 0 01-6.46-4.19c-.74-1.99-.2-2.82 1.91-2.87 1.44-.03 2.88 0 4.32 0z"/>
  </g>
</svg>
