<svg xmlns="http://www.w3.org/2000/svg" viewBox="0 0 250 250">
  <g data-name="cultural exchange">
    <path fill="#ff3e5b" d="M45.95 113.57l7.5 1.82-18.02 21.65-8-27.97 5.15 1.25c12.9-39.87 40.07-64.48 70.7-75.38l3.16 14.33c-12.71 5.38-45.04 18.6-60.49 64.3z"/>
    <path fill="#1c699c" d="M101.47 207.85l1.68-8.13 19.97 19.54-25.8 8.68 1.15-5.59c-36.76-14-59.46-43.45-69.5-76.67l13.21-3.42c4.96 13.78 17.14 48.84 59.3 65.59z"/>
    <path fill="#affff7" d="M200.64 145.24l-7.47-1.78 17.85-21.65 8.09 27.82-5.14-1.21c-12.69 39.76-39.64 64.4-70.1 75.4l-3.2-14.26c12.63-5.42 44.78-18.73 59.97-64.32z"/>
    <path fill="#96caed" d="M144.72 52.48L143 60.59l-19.88-19.62 25.83-8.56-1.18 5.58c36.7 14.17 59.29 43.73 69.2 77l-13.23 3.36c-4.9-13.8-16.94-48.93-59.02-65.87z"/>
    <g>
      <path fill="#96caed" d="M149.46 133.08H96.77c0-6.86 8.63-11.48 16.86-13.6a18.09 18.09 0 01-6.78-14.33c0-9.74 7.28-17.63 16.27-17.63 8.98 0 16.26 7.9 16.26 17.63a18.1 18.1 0 01-6.77 14.32c8.23 2.13 16.85 6.75 16.85 13.6z"/>
      <path fill="#affff7" d="M116.1 165.26H63.4c0-6.86 8.62-11.47 16.86-13.6a18.09 18.09 0 01-6.78-14.33c0-9.73 7.28-17.63 16.27-17.63 8.98 0 16.26 7.9 16.26 17.63a18.1 18.1 0 01-6.77 14.33c8.23 2.13 16.85 6.74 16.85 13.6z"/>
      <path fill="#ff3e5b" d="M183.54 165.34l-52.69-.17c.02-6.85 8.66-11.44 16.9-13.54a18.1 18.1 0 01-6.74-14.35c.03-9.73 7.33-17.6 16.32-17.58 8.97.03 16.23 7.95 16.2 17.69a18.1 18.1 0 01-6.8 14.3c8.22 2.15 16.83 6.8 16.81 13.65z"/>
    </g>
  </g>
</svg>
