<svg xmlns="http://www.w3.org/2000/svg" viewBox="0 0 250 250">
  <path fill="#ff3e5b" d="M113.81 45.12c1.1-3.4 1.96-6.56 3.14-9.6.82-2.1.32-3.34-1.5-4.57a81.12 81.12 0 01-7.17-5.55c-.66-.56-.85-1.66-1.26-2.52a8.02 8.02 0 012.59-1.18 80.53 80.53 0 018.83-.05c2.24.13 3.27-.73 3.82-2.87a65.61 65.61 0 012.7-7.89c.3-.74 1.23-1.22 1.87-1.82.54.62 1.32 1.14 1.59 1.86 1.04 2.83 2.01 5.7 2.83 8.6a2.54 2.54 0 002.9 2.13c3.18-.07 6.36-.13 9.54.01.86.04 2.18.64 2.4 1.29a3.07 3.07 0 01-1.1 2.5c-2.5 2.08-5.1 4.04-7.75 5.95a2.72 2.72 0 00-1.08 3.5c1 2.94 2.02 5.87 2.85 8.85a8.06 8.06 0 01-.26 2.8 8.63 8.63 0 01-2.79-.68 82.97 82.97 0 01-7.13-5.2c-1.62-1.32-2.84-1.16-4.4.08a120.6 120.6 0 01-7.54 5.45 2.87 2.87 0 01-2.16.38c-.46-.14-.68-1.06-.92-1.47z"/>
  <path fill="#1c699c" d="M93.53 210.27l-.84 6.07c-4.02-1.85-7.85-3.34-11.42-5.3-26.36-14.5-43.06-36.37-49.79-65.76a10.4 10.4 0 01-.31-1.64c-.1-1.65.69-3.05 2.24-3.13a5.47 5.47 0 013.3 1.63c.55.48.54 1.61.75 2.46 7.28 30.7 25.63 52.15 54.36 64.9l1.71.77zM160.6 216.04c-.91-5.67-.86-5.57 4.06-7.94 26.93-13 44.08-33.96 51.14-63.09.19-.77.3-1.56.54-2.32.5-1.66 1.64-2.62 3.38-2.3a2.77 2.77 0 012.33 3.55 62.21 62.21 0 01-1.48 6.5c-9.04 31.1-28.64 52.74-58.49 65.18a13.92 13.92 0 01-1.48.42zM223.94 122.73c0 .36.03 1.23 0 2.1-.08 1.85-.95 3.08-2.88 3.12-1.94.05-2.85-1.14-3-2.98-.4-4.75-.52-9.55-1.27-14.24-3.53-22.14-13.94-40.5-30.9-55.14-.84-.73-1.72-1.41-2.55-2.16-1.4-1.27-1.99-2.78-.6-4.37 1.35-1.56 3.02-1.39 4.43-.1 3.99 3.63 8.19 7.1 11.78 11.1 15.86 17.65 24 38.48 24.99 62.67zM29.45 121.44c1.66-29.46 13.66-53.67 36.58-72.37 1.75-1.42 3.52-1.36 4.63.02 1.18 1.46.86 3.13-1.1 4.7a91.14 91.14 0 00-34.2 68.15c-.05 1.03 0 2.07-.07 3.1-.14 1.86-1.15 3-3.06 2.93a2.72 2.72 0 01-2.77-2.96c-.05-1.19 0-2.38 0-3.57z"/>
  <path fill="#ff3e5b" d="M91.04 47.01a5.53 5.53 0 01-1.15-1.34 8.86 8.86 0 00-4.86-4.97c-.57-.26-1.4-1.01-1.34-1.42a2.63 2.63 0 011.37-1.66 9 9 0 004.75-4.77 2.51 2.51 0 011.68-1.31c.43-.06 1.19.73 1.43 1.3a9.08 9.08 0 004.96 4.87c1.72.76 1.72 2.1 0 2.88a8.9 8.9 0 00-5.04 5.09c-.26.67-.49 1.36-.73 2.04zM162.28 31.03c.64.67 1.21 1.03 1.43 1.54a9.3 9.3 0 005.04 5.13 2.1 2.1 0 011.15 1.53 2.25 2.25 0 01-1.28 1.45 8.9 8.9 0 00-4.76 4.76c-.26.56-1 1.34-1.44 1.28a2.56 2.56 0 01-1.67-1.3 9.15 9.15 0 00-4.8-4.74 2.2 2.2 0 01-1.23-1.5 2.13 2.13 0 011.17-1.52 9.02 9.02 0 004.93-4.9 8.58 8.58 0 011.46-1.73z"/>
  <path fill="#1c699c" d="M133.14 216.34l.78 5.73H119.4l.77-5.73z"/>
  <g>
    <path fill="#1c699c" d="M155.33 164.88c-1.05-7.04-2.07-13.55-2.96-20.08a4.32 4.32 0 01.7-2.59c1.02-1.68 1.3-3.42-.02-4.86-2.56-2.79-5.35-5.37-8.56-8.55.08 1.45.06 2.27.17 3.06 1.8 12.84 3.66 25.66 5.42 38.5 2.2 16.07 4.34 32.15 6.49 48.22.83 6.23 1.69 12.45 2.44 18.69.36 2.92-.24 3.56-3.2 3.6-3.97.06-7.95-.04-11.93.04-2.16.04-3.18-.89-3.46-3.01q-2.84-21.04-5.77-42.06c-.52-3.78-1-7.57-1.56-11.34-.59-3.86-3.04-6.13-6.46-6.08-3.54.05-5.85 2.18-6.4 6.1q-3.61 26-7.16 51.98c-.57 4.19-.81 4.45-5.08 4.42-3.5-.02-7 .02-10.5-.01-2.96-.02-3.65-.93-3.26-3.81 2.34-17.26 4.6-34.52 6.96-51.77 1.6-11.66 3.33-23.3 4.96-34.95.97-6.91 1.86-13.83 2.86-21.37a17.37 17.37 0 00-1.88 1.33c-2.1 2.06-4.2 4.13-6.24 6.25-1.88 1.96-1.95 3.53-.55 5.78a3.55 3.55 0 01.63 2.12c-.85 6.3-1.8 12.6-2.74 18.88a10.25 10.25 0 01-.5 1.44c-4.93-4.64-10.06-8.76-14.3-13.65a17.46 17.46 0 01.74-23.73c5.63-5.92 10.94-12.26 18.12-16.49a33.67 33.67 0 0116.95-5.04 169.71 169.71 0 0118.57.46c8.18.84 15.07 4.79 20.92 10.5 3.13 3.07 6.25 6.14 9.3 9.28 8.34 8.55 7.95 19.94-.91 27.98-3.82 3.46-7.62 6.95-11.79 10.76zm-33.82-50.4a22.5 22.5 0 001.8 2.53c1.8 1.82 2.1 3.73 1.4 6.24-1.47 5.28-2.6 10.65-3.76 16a3.47 3.47 0 00.4 2.75c4.24 4.05 5.23 4 9.96.78 1.5-1.02 1.61-2.04 1.22-3.6-1.4-5.62-2.68-11.28-4.1-16.9a4.21 4.21 0 01.92-4.36 29.33 29.33 0 002.37-3.45zM144.33 81.32a17.71 17.71 0 11-17.8-17.66 17.72 17.72 0 0117.8 17.66zm-17.62.04v.1c-1.67 0-3.34-.03-5.01.01-2.45.06-3.08 1.02-2.22 3.33a7.73 7.73 0 007.5 4.86 7.83 7.83 0 007.04-5.53c.5-1.81-.12-2.78-2.06-2.77h-5.25z"/>
    <path fill="#ff3e5b" d="M121.5 114.47h10.22a29.33 29.33 0 01-2.37 3.45 4.21 4.21 0 00-.92 4.36c1.42 5.62 2.7 11.28 4.1 16.9.4 1.56.27 2.59-1.22 3.6-4.73 3.22-5.72 3.27-9.97-.78a3.47 3.47 0 01-.39-2.74c1.16-5.36 2.29-10.73 3.76-16 .7-2.52.4-4.43-1.4-6.25a22.5 22.5 0 01-1.8-2.54z"/>
    <path fill="#a4fcfc" d="M126.71 81.36h5.25c1.94 0 2.55.96 2.06 2.77a7.83 7.83 0 01-7.04 5.53 7.73 7.73 0 01-7.5-4.86c-.86-2.3-.23-3.27 2.22-3.33 1.67-.04 3.34 0 5.01 0z"/>
  </g>
</svg>
