<svg xmlns="http://www.w3.org/2000/svg" data-name="Layer 1" viewBox="0 0 180.28 246.09">
  <path fill="#96caed" stroke="#000" stroke-miterlimit="10" stroke-width=".5" d="M54.46 100.52c-2.15 5.82 9.55 30.14 34.74 30.14 1.27 0 1.36-1.58.51-2.52a54.08 54.08 0 01-13.62-30.77"/>
  <path fill="#96caed" stroke="#000" stroke-miterlimit="10" stroke-width=".5" d="M3.35 107.64a126.3 126.3 0 004.31-9.51c1.28-3.42-3.55-6.06-3.89-13.44-.4-8.91.51-49.7 64.68-60.09 1.4-.22 2.47-.36 2.83-.4a102.46 102.46 0 0145.17 6.19c21.14 8.26 44.3 29.48 55.83 57.53 21.23 51.58-7.52 99.75-10.89 105.2 1.56.64 12.46 5.4 16.09 17.48a27.67 27.67 0 01-.9 18 20.5 20.5 0 00-.13 13.4 18.28 18.28 0 001.92 3.84c-2.02.04-14.67.13-24.13-9.96-11.32-12.08-7.96-27.92-7.66-29.24-1.3 1.34-8.9 8.93-20.68 8.69-15.08-.32-23.1-13.19-23.62-14.05a28.74 28.74 0 0015.07-5.23c4.08-3 4.83-5.5 8.17-7.53 3.49-2.13 9.39-3.52 19.91.25a44.83 44.83 0 006.9-19.15c2.89-27.08-22-52.44-45.24-62.64-31.21-13.69-58.49-4.05-69.6 5.91-11.9 11.36-17.27 17.45-22.65 15.03a6.1 6.1 0 01-2.9-3.06 8.08 8.08 0 01-7.15 2.38c-8.48-1.06-2.73-17.02-1.44-19.6z"/>
  <path fill="#db3a51" d="M145.61 140.94c-2.07-22.44-17.74-44.28-32.65-52.71-22.46-12.7-41.8-3.3-49.6 6.26-2.57 3.34-4.94 6.12-6.77 8.42 13.35-4.14 31.45-3.98 50.9 4.25 14.45 6.11 29.25 19.2 38.12 33.78z"/>
  <path fill="none" stroke="#000" stroke-linecap="round" stroke-miterlimit="10" stroke-width=".25" d="M22.63 105.56c-1.54 7.52-4.43 13.14-10.69 19.3"/>
  <path fill="none" stroke="#db3a51" stroke-linecap="round" stroke-miterlimit="10" stroke-width=".44" d="M29.78 75.67a6.3 6.3 0 012.44-8.57 6.3 6.3 0 018.34 3.12"/>
  <g fill="#96caed" stroke="#000" stroke-miterlimit="10" stroke-width=".5">
    <path d="M71.28 24.2C74.82 19.5 89.8.77 112.2.25a41.55 41.55 0 018.12.61 1.97 1.97 0 011.44 2.91c-3.47 5.5-8.5 14.25-7.54 25.77a102.83 102.83 0 00-42.94-5.36zM73.34 75.77c-10.21 23.72 13.8 54.34 47.85 48.18a1.38 1.38 0 00.5-2.52c-12.36-7.62-19.93-18.92-13.46-37.32"/>
  </g>
</svg>
