<svg xmlns="http://www.w3.org/2000/svg" data-name="Layer 1" viewBox="0 0 195 255">
  <defs>
    <linearGradient id="a" x1="-46.3" x2="193.72" y1="170.62" y2="40.71" gradientUnits="userSpaceOnUse">
      <stop offset="0" stop-color="#ff3e5b"/>
      <stop offset=".03" stop-color="#ef6479"/>
      <stop offset=".07" stop-color="#e08897"/>
      <stop offset=".12" stop-color="#d3a8b1"/>
      <stop offset=".17" stop-color="#c8c4c7"/>
      <stop offset=".23" stop-color="#bfdad9"/>
      <stop offset=".29" stop-color="#b7ebe6"/>
      <stop offset=".37" stop-color="#b3f6f0"/>
      <stop offset=".49" stop-color="#b0fdf5"/>
      <stop offset=".8" stop-color="#affff7"/>
      <stop offset=".86" stop-color="#adfbf6"/>
      <stop offset=".91" stop-color="#a7edf4"/>
      <stop offset=".97" stop-color="#9cd8f0"/>
      <stop offset="1" stop-color="#96caed"/>
    </linearGradient>
    <linearGradient id="b" x1="-55.07" x2="190.81" y1="173.26" y2="54.79" gradientTransform="rotate(-2.6 130.15 105)" gradientUnits="userSpaceOnUse">
      <stop offset="0" stop-color="#ff3e5b"/>
      <stop offset=".06" stop-color="#fb4863"/>
      <stop offset=".17" stop-color="#f06379"/>
      <stop offset=".31" stop-color="#de8e9c"/>
      <stop offset=".47" stop-color="#c5cacc"/>
      <stop offset=".6" stop-color="#affff7"/>
      <stop offset=".82" stop-color="#aefdf7"/>
      <stop offset=".9" stop-color="#abf6f5"/>
      <stop offset=".96" stop-color="#a5ebf3"/>
      <stop offset="1" stop-color="#9edbf0"/>
      <stop offset="1" stop-color="#96caed"/>
    </linearGradient>
  </defs>
  <path fill="#96caed" d="M126.72 98.54c2.03 5.86-10.12 29.96-35.3 29.49-1.27-.02-1.33-1.61-.47-2.54A54.08 54.08 0 00105.14 95"/>
  <path fill="#96caed" d="M3.03 210.68c3.63-12.08 14.53-16.84 16.1-17.5C15.74 187.76-13 139.58 8.22 88c11.54-28.06 34.7-49.28 55.83-57.54.97-.38 1.94-.74 2.9-1.07 1-11.48-3.97-20.22-7.39-25.73a1.97 1.97 0 011.46-2.9A41.68 41.68 0 0169.15.2c22.38.66 37.23 19.43 40.76 24.16h.01l2.14.32c64.17 10.38 65.1 51.17 64.68 60.08-.34 7.39-5.17 10.02-3.89 13.44.9 2.4 2.97 6.84 4.31 9.52 1.3 2.58 7.04 18.54-1.45 19.6a8.1 8.1 0 01-7.14-2.4 6.16 6.16 0 01-2.9 3.08c-5.39 2.4-10.74-3.67-22.66-15.03-11.1-9.96-38.38-19.6-69.59-5.91-23.25 10.2-48.13 35.55-45.24 62.64a44.84 44.84 0 006.9 19.15c10.52-3.77 16.42-2.38 19.91-.26 3.34 2.04 4.1 4.53 8.17 7.53a28.73 28.73 0 0015.07 5.24c-.52.86-8.54 13.73-23.62 14.04-11.78.24-19.39-7.34-20.68-8.68.3 1.3 3.66 17.16-7.66 29.23-9.46 10.1-22.1 10-24.13 9.96a18.48 18.48 0 001.92-3.83 20.53 20.53 0 00-.13-13.4 27.64 27.64 0 01-.9-18z" data-name="main"/>
  <path fill="url(#a)" d="M3.04 210.68c3.63-12.08 14.53-16.84 16.09-17.5-8-11.06-29.96-62.19-12.6-100.73 8.8-24.77 30.51-51.71 57.54-62 .97-.36 1.94-.73 2.9-1.06.9-9.08-2.3-17.06-5.72-22.57-.72-1.16 2.17-1.77 4.58-1.7 22.38.66 29.83 20.3 33.36 25.03h.01l2.14.32c64.17 10.38 65.1 51.17 64.68 60.08.05 17.72-9.36 35.4-23 22.42-10.8-10.28-44.06-22.57-80.32-.12-7.92 4.91-38.3 27.46-34.51 56.85a44.84 44.84 0 006.9 19.15c10.52-3.77 16.42-2.38 19.9-.26 3.35 2.04 4.1 4.53 8.18 7.53a28.73 28.73 0 0015.07 5.24c-.52.86-8.54 13.73-23.62 14.04-11.78.24-19.4-7.34-20.68-8.68.3 1.3 3.66 17.16-7.66 29.23-9.46 10.1-22.11 10-24.13 9.96a18.47 18.47 0 001.92-3.83 20.53 20.53 0 00-.13-13.4 27.64 27.64 0 01-.9-18z" opacity=".4"/>
  <path fill="#db3a51" d="M34.67 140.94c2.07-22.44 17.74-44.28 32.65-52.71 22.46-12.7 41.8-3.3 49.6 6.26 2.57 3.34 4.94 6.12 6.77 8.42-13.35-4.14-31.45-3.98-50.9 4.25-14.45 6.11-29.25 19.2-38.12 33.78z"/>
  <path fill="none" stroke="#000" stroke-linecap="round" stroke-miterlimit="10" stroke-width=".25" d="M157.65 105.56c1.54 7.52 4.43 13.14 10.69 19.3"/>
  <g data-name="fin-bottom-right">
    <path fill="#96caed" d="M130.62 83.42c2.44 25.7-29.81 47.48-60.33 31.18a1.38 1.38 0 01.3-2.56c14.1-3.46 24.78-11.89 24.26-31.38" data-name="fin-bottom-right"/>
    <path fill="url(#b)" d="M130.62 83.42c2.44 25.7-29.81 47.48-60.33 31.18a1.38 1.38 0 01.3-2.56c14.1-3.46 24.78-11.89 24.26-31.38" opacity=".4"/>
    <path fill="#96caed" d="M129.54 94c-5.9 21.08-33.7 34.22-59.17 20.79a1.39 1.39 0 01.28-2.57c41.33 14.52 58.9-18.22 58.9-18.22z" opacity=".65"/>
  </g>
  <g>
    <circle cx="162.99" cy="89.42" r="2.22" fill="#1c699c" data-name="eye"/>
    <path fill="#fff" d="M164.52 88.62c-.23-.07.07.62-.12 1.25s-.81.97-.58 1.04.82-.22 1.01-.85-.08-1.37-.3-1.44z" opacity=".8"/>
  </g>
</svg>
