<svg xmlns="http://www.w3.org/2000/svg" xmlns:xlink="http://www.w3.org/1999/xlink" viewBox="0 0 245 260">
  <defs>
    <linearGradient id="a" x1="-69.08" x2="234.2" y1="266.73" y2="66.35" gradientUnits="userSpaceOnUse">
      <stop offset="0" stop-color="#ff3e5b"/>
      <stop offset=".01" stop-color="#fd425e"/>
      <stop offset=".1" stop-color="#e97486"/>
      <stop offset=".19" stop-color="#d79ea9"/>
      <stop offset=".29" stop-color="#c9c1c5"/>
      <stop offset=".39" stop-color="#bddcdb"/>
      <stop offset=".48" stop-color="#b5f0eb"/>
      <stop offset=".58" stop-color="#b1fbf4"/>
      <stop offset=".69" stop-color="#affff7"/>
      <stop offset=".88" stop-color="#9edbf0"/>
      <stop offset="1" stop-color="#96caed"/>
    </linearGradient>
    <linearGradient id="b" x1="-66.45" x2="235.82" y1="270.08" y2="70.37" xlink:href="#a"/>
    <linearGradient id="c" x1="31.21" x2="175.98" y1="219.58" y2="212.42" xlink:href="#a"/>
    <linearGradient id="d" x1="31.12" x2="176.24" y1="220.86" y2="213.69" xlink:href="#a"/>
  </defs>
  <g style="isolation:isolate">
    <path fill="url(#a)" d="M186.8 90.6c-20.84-8.84-42.83-5.2-58.22 3.47 0 0-26.05 14.7-36.76 49.21-.64 2.07-1.65 5.1-3.07 8.67-2.16 5.46-3.43 8.65-5.44 11.44-.65.9-5.62 7.56-13.96 9.36-12.08 2.6-26.19-6.11-27.02-14.73a9.08 9.08 0 01.25-3.12 36 36 0 0012.81-1.91c13.08-4.49 19.5-15.31 21.45-18.72 3.4-5.94 8.38-19.67 5.96-22.14-6.5-6.61-27.26-5.47-38.56 6.37a28.46 28.46 0 00-3.44 4.42 62.22 62.22 0 00-2.05-4.94c-.41-.9-4.12-8.77-9.19-14.3-8.04-8.77-19.5-11.64-23.49-12.47-1.22 1.97-9.63 16-4.34 33.14 5.7 18.44 22.38 24.8 24.26 25.48a50.91 50.91 0 00-4.6 23.78c.83 15.03 8.44 25.29 12.26 30.29 17.01 22.3 44.86 27.23 62.6 30.37 0 0 37.67 6.68 85.1-9.96a68.34 68.34 0 0017.62-8.84 72.03 72.03 0 0021.44-24.96c15.14-29.3 3.7-59.48 3.07-61.09-3.18-8-13.1-28.82-36.68-38.82z"/>
    <path fill="url(#b)" d="M178.92 98.94c-17.66-7.5-36.3-4.4-49.34 2.94 0 0-22.08 12.46-31.16 41.71a767.2 767.2 0 01-7.15 21.1c-1.84 4.63-2.91 7.33-4.62 9.7-.55.76-4.76 6.41-11.83 7.93-10.23 2.2-25.1-7.71-31.6-21.13a9.08 9.08 0 01-.64-6.3c2.86.1 5.05-.66 9.24-2.1 11.08-3.8 16.52-12.98 18.18-15.87 2.89-5.04 7.1-16.67 5.05-18.76-5.5-5.6-23.1-4.64-32.68 5.4a24.12 24.12 0 00-2.92 3.74c-.38-1.05-.95-2.5-1.73-4.18a53.68 53.68 0 00-7.8-12.12c-6.8-7.44-16.52-9.87-19.9-10.58-1.04 1.67-8.16 13.56-3.68 28.1a33.43 33.43 0 0019.71 21.3 47.8 47.8 0 00-4.66 23.8c.9 14.81 8.68 25.6 12.26 30.28 18.08 23.61 46.15 27.06 62.6 30.37 6.66 1.34 41.12 4.85 81.83-8.83a73.4 73.4 0 0016.76-8.91 61.05 61.05 0 0018.18-21.15c12.83-24.84 2.25-54.05.48-59.67-2.2-6.97-14.6-28.3-34.58-36.77z" opacity=".4"/>
    <path fill="#db3a51" d="M66.88 227.09c10.56 3.85 21.07 5.7 29.36 7.18 0 0 37.67 6.67 85.1-9.96a68.32 68.32 0 0017.62-8.84 72.04 72.04 0 0021.45-24.96 84.28 84.28 0 01-16.73-1.25c-1.09-.2-2.04-.38-2.8-.55a126.09 126.09 0 01-27.96 18.35c-12.58 5.9-23.06 8-31.32 9.53-28.13 5.23-55.15 8.46-74.72 10.5z"/>
    <path d="M200.91 188.82c.95.2 1.85.38 2.76.54a85.56 85.56 0 0014.6 1.29c.67 0 1.34-.01 1.98-.03a72.56 72.56 0 01-21.34 24.77 68.1 68.1 0 01-17.6 8.82 198.8 198.8 0 01-65.12 11.28 127.59 127.59 0 01-19.93-1.32l-.23-.05c-8.2-1.46-18.38-3.27-28.7-6.98 27.76-2.9 52.06-6.32 74.3-10.45a121.34 121.34 0 0031.34-9.54 127.58 127.58 0 0027.94-18.33m-.03-.1a126.09 126.09 0 01-27.96 18.34c-12.58 5.9-23.06 8-31.32 9.53-28.13 5.23-55.15 8.46-74.72 10.5 10.56 3.85 21.07 5.7 29.36 7.17a126.27 126.27 0 0019.95 1.33 198.44 198.44 0 0065.15-11.28 68.33 68.33 0 0017.62-8.84 72.04 72.04 0 0021.45-24.96c-.66.02-1.37.04-2.13.04a85.26 85.26 0 01-14.6-1.29c-1.09-.2-2.04-.39-2.8-.55z" opacity=".4"/>
    <path fill="#db3a51" d="M35.87 206.64c8.77 10.21 19.93 16.43 31.01 20.45 19.57-2.04 46.6-5.27 74.72-10.5 8.26-1.54 18.74-3.62 31.32-9.53a126.09 126.09 0 0027.96-18.35c-.85-.18-1.45-.32-1.73-.4a69.47 69.47 0 01-16.13-6.12 178.7 178.7 0 00-19.55 5.91 119.6 119.6 0 00-13.96 6.24c-8.87 4.6-34.2 13.85-60.93 17.68-11.27 1.62-36.55.13-52.7-5.38z"/>
    <path d="M183.01 182.3a69.92 69.92 0 0016.12 6.11l1.54.36a127.36 127.36 0 01-27.79 18.2 121.17 121.17 0 01-31.3 9.52c-22.33 4.16-46.76 7.59-74.68 10.5-12.99-4.72-23.04-11.31-30.7-20.13 12.95 4.33 30.46 5.88 41.6 5.88a79.61 79.61 0 0010.8-.62c28.05-4.02 53.19-13.65 60.96-17.69l.32-.16a118.29 118.29 0 0113.63-6.07 179.9 179.9 0 0119.5-5.9m.02-.11a178.7 178.7 0 00-19.55 5.91 119.6 119.6 0 00-13.96 6.24c-8.87 4.6-34.21 13.85-60.93 17.68a79.36 79.36 0 01-10.79.62c-12.62 0-29.83-1.87-41.92-6 8.77 10.21 19.93 16.43 31 20.45 19.58-2.04 46.6-5.27 74.73-10.5 8.26-1.54 18.74-3.62 31.32-9.53a126.09 126.09 0 0027.96-18.35c-.85-.18-1.45-.32-1.73-.4a69.47 69.47 0 01-16.13-6.12z" opacity=".4"/>
    <g>
      <path fill="url(#c)" d="M137.36 188.27a49.44 49.44 0 011.5 8.64c.32 3.88 1 13.27-3.55 23.1-6.1 13.22-17.7 18.82-21.63 20.64a46.59 46.59 0 01-16.37 4.2 3.8 3.8 0 01-4.01-3.31 91.14 91.14 0 01-.37-21.35 86.85 86.85 0 019.7-32.68" data-name="fin"/>
      <path fill="url(#c)" d="M137.36 188.27a49.44 49.44 0 011.5 8.64c.32 3.88 1 13.27-3.55 23.1-6.1 13.22-17.7 18.82-21.63 20.64a46.59 46.59 0 01-16.37 4.2 3.8 3.8 0 01-4.01-3.31 91.14 91.14 0 01-.37-21.35 86.85 86.85 0 019.7-32.68" data-name="fin" opacity=".4"/>
      <path fill="url(#d)" d="M104.85 243.81c-4.4-3.48-5.77-19.29-5.3-23.75.3-2.77 3.08-27.05 3.08-27.05 1.43-11.6-9.97 13.88-10.16 32.5a118.21 118.21 0 00.83 16.35 3.64 3.64 0 004.01 2.99l1.9-.12c4.05-.55 5.64-.92 5.64-.92z"/>
    </g>
    <g opacity=".75">
      <ellipse cx="200.88" cy="149.91" fill="#affff7" data-name="eye" rx="10.65" ry="10.84"/>
      <ellipse cx="208.61" cy="149.91" fill="#affff7" data-name="eye" rx="2.93" ry="5.96"/>
      <ellipse cx="200.88" cy="149.91" fill="#fafdff" data-name="eye" rx="10.65" ry="10.84"/>
      <ellipse cx="208.61" cy="149.91" fill="#ff3e5b" data-name="eye" rx="2.93" ry="5.96"/>
    </g>
    <g>
      <path fill="#96caed" d="M153.79 72.01c.12.83 1.63.9 1.63-.08 0-10.11 23.36-33.61 47.89-26.54 12.89 3.72 24.25-8.84 24.25-19.75s-9.61-18.57-24.25-19.76C168.37 3.04 151.22 54.29 153.79 72z"/>
      <path fill="#affff7" d="M203.3 18.75c11.58.94 20 5.94 23.02 13.38-3.28 8.73-12.65 16.27-23.01 13.28-24.53-7.08-47.88 16.42-47.88 26.54 0 .28-.31.87-.38.1 1.75-19.66 19.77-55.61 48.26-53.3z" data-name="shade" opacity=".4"/>
      <g>
        <path fill="#96caed" d="M97.6 18.42c.36 8.88 9.09 13.82 22.27 12.63 14.33-1.28 23.01 17.16 24.93 15.35 1.52-6.03-3.21-37.08-21.43-44.63-14.5-6.02-26.26 4.27-25.77 16.65z" data-name="drop"/>
        <path fill="#affff7" d="M100.42 25.66c3.04-9.04 13.02-14.94 24.83-10.04 10.97 4.55 16.7 17.67 19.46 28.66a8.99 8.99 0 01.11 2.12c-1.92 1.81-10.6-16.63-24.93-15.35-8.96.8-15.86-1.22-19.47-5.39z" data-name="shade" opacity=".4"/>
      </g>
    </g>
    <g>
      <g fill="none" stroke="#000" stroke-miterlimit="10" stroke-width=".25" opacity=".6">
        <path d="M182.82 182.39a106.99 106.99 0 01-10.02-7.43"/>
        <path stroke-linecap="round" d="M159.6 177.26c3.82 3.03 10.7.94 13.69-2.94s3.27-10.53-.54-13.57"/>
      </g>
      <ellipse cx="147.07" cy="167.37" fill="#96caed" rx="7.98" ry="3.78"/>
    </g>
  </g>
</svg>
