<svg xmlns="http://www.w3.org/2000/svg" viewBox="0 0 228.22 257.46">
  <path fill="#96caed" d="M41.42 88.98c20.84-8.68 42.83-5.1 58.21 3.4 0 0 26.05 14.46 36.77 48.35.64 2.03 1.64 5 3.06 8.5 2.17 5.37 3.44 8.5 5.45 11.24.65.89 5.62 7.43 13.96 9.2 12.08 2.54 26.19-6 27.02-14.47a8.76 8.76 0 00-.26-3.07 36.6 36.6 0 01-12.8-1.87c-13.08-4.41-19.5-15.04-21.45-18.38-3.4-5.85-8.38-19.32-5.96-21.75 6.5-6.5 27.26-5.37 38.55 6.26a28.04 28.04 0 013.45 4.34c.45-1.22 1.12-2.9 2.04-4.85.42-.89 4.13-8.62 9.2-14.05 8.04-8.62 19.5-11.43 23.48-12.25 1.23 1.93 9.64 15.7 4.34 32.55-5.69 18.11-22.38 24.36-24.25 25.02a49.25 49.25 0 014.6 23.36c-.83 14.77-8.44 24.84-12.26 29.75-17.02 21.9-44.87 26.74-62.6 29.83 0 0-37.67 6.56-85.1-9.79a68.84 68.84 0 01-17.62-8.68 71.2 71.2 0 01-21.45-24.5c-15.14-28.8-3.7-58.43-3.06-60 3.18-7.87 13.1-28.32 36.68-38.14z"/>
  <path fill="#affff7" d="M49.3 97.17c17.66-7.35 36.3-4.32 49.34 2.89 0 0 22.08 12.24 31.16 40.97.54 1.72 5.94 17.75 7.15 20.72 1.84 4.55 2.91 7.2 4.61 9.53a21.06 21.06 0 0011.83 7.79c10.24 2.16 25.1-7.58 31.61-20.76a8.77 8.77 0 00.63-6.18c-2.85.09-5.04-.66-9.23-2.07-11.09-3.74-16.53-12.74-18.18-15.58-2.89-4.95-7.1-16.37-5.05-18.43 5.5-5.5 23.1-4.55 32.68 5.3a23.76 23.76 0 012.92 3.68 51.3 51.3 0 011.73-4.11 52.6 52.6 0 017.79-11.9c6.82-7.3 16.53-9.7 19.9-10.4 1.05 1.65 8.17 13.33 3.69 27.6a33.15 33.15 0 01-19.72 20.93 46.25 46.25 0 014.67 23.37c-.9 14.55-8.68 25.15-12.26 29.74-18.08 23.2-46.15 26.58-62.6 29.83-6.66 1.32-41.13 4.76-81.83-8.67a73.87 73.87 0 01-16.77-8.75 60.35 60.35 0 01-18.17-20.78c-12.84-24.4-2.26-53.08-.48-58.6 2.19-6.85 14.6-27.8 34.58-36.12z" opacity=".4"/>
  <path fill="#db3a51" d="M112.03 231.26A202.06 202.06 0 0146.9 220.2a68.61 68.61 0 01-17.59-8.67 71.7 71.7 0 01-21.3-24.27l1.92.02a87.04 87.04 0 0014.61-1.26c1.07-.19 2-.37 2.75-.53a127.73 127.73 0 0027.94 18 123 123 0 0031.35 9.37c22.2 4.06 46.48 7.41 74.18 10.25-10.28 3.62-20.41 5.4-28.59 6.82l-.23.04a129.91 129.91 0 01-19.92 1.3z"/>
  <path d="M27.26 185.61A127.93 127.93 0 0055.2 203.6a123.13 123.13 0 0031.38 9.38c22.05 4.03 46.15 7.37 73.63 10.2-10.09 3.49-20.01 5.22-28.04 6.63l-.23.04a129.76 129.76 0 01-19.9 1.3 201.93 201.93 0 01-65.08-11.07 68.47 68.47 0 01-17.55-8.65 71.59 71.59 0 01-21.18-24.04l1.72.02a87.21 87.21 0 0014.64-1.27c.88-.15 1.76-.32 2.68-.52m.07-.27c-.76.16-1.7.35-2.8.54a86.78 86.78 0 01-14.59 1.27c-.76 0-1.47-.02-2.14-.03a71.21 71.21 0 0021.45 24.5 68.82 68.82 0 0017.62 8.69 201.71 201.71 0 0065.15 11.08 128.52 128.52 0 0019.95-1.3c8.3-1.45 18.8-3.27 29.36-7.05-19.57-2-46.59-5.17-74.72-10.31-8.26-1.51-18.74-3.56-31.32-9.36a126.3 126.3 0 01-27.96-18.02z"/>
  <path fill="#db3a51" d="M161.32 222.9c-27.92-2.85-52.34-6.22-74.68-10.3a122.76 122.76 0 01-31.3-9.35 127.5 127.5 0 01-27.73-17.84c.72-.15 1.23-.27 1.48-.33a70.75 70.75 0 0016.16-6.03 193 193 0 0119.45 5.81 119.3 119.3 0 0113.63 5.96l.32.17c7.77 3.96 32.91 13.42 60.97 17.37a81.24 81.24 0 0010.8.6c11.11 0 28.57-1.5 41.52-5.74-7.65 8.63-17.68 15.07-30.62 19.69z"/>
  <path d="M45.23 179.2a182.19 182.19 0 0119.43 5.78 119.21 119.21 0 0113.6 5.95l.33.17c7.78 3.96 32.94 13.43 61 17.38a81.19 81.19 0 0010.83.61c11 0 28.2-1.47 41.12-5.61-7.6 8.43-17.5 14.75-30.24 19.3-27.9-2.85-52.32-6.22-74.64-10.3a122.7 122.7 0 01-31.26-9.34 127.4 127.4 0 01-27.52-17.66l1.24-.28a70.86 70.86 0 0016.1-6m-.03-.26a70.27 70.27 0 01-16.13 6.02l-1.73.39a126.3 126.3 0 0027.96 18.02c12.58 5.8 23.06 7.85 31.32 9.36 28.13 5.14 55.15 8.3 74.72 10.3 11.08-3.94 22.24-10.04 31.01-20.07-12.1 4.05-29.3 5.88-41.92 5.88a80.79 80.79 0 01-10.79-.6c-26.72-3.76-52.06-12.84-60.93-17.36a120.7 120.7 0 00-13.96-6.13 181.16 181.16 0 00-19.55-5.81z"/>
  <path fill="#db3a51" stroke="#000" stroke-miterlimit="10" d="M66.64 203.47a47.78 47.78 0 00-1.07 8.55c-.13 3.82-.33 13.07 4.69 22.5 6.74 12.64 18.61 17.56 22.62 19.15a47.27 47.27 0 0016.56 3.29 3.78 3.78 0 003.84-3.45 87.94 87.94 0 00-.68-20.95 84.2 84.2 0 00-11.3-31.57"/>
  <g>
    <circle cx="27.33" cy="147.23" r="10.65" fill="#fafdff" data-name="eye"/>
    <ellipse cx="19.61" cy="147.23" fill="#ff3e5b" data-name="eye" rx="2.93" ry="5.86"/>
  </g>
  <g>
    <path fill="#96caed" d="M74.43 70.73c-.12.8-1.64.88-1.64-.08 0-9.94-23.35-33.02-47.88-26.07C12.02 48.23.66 35.9.66 25.18S10.27 6.94 24.9 5.78C59.85 2.97 77 53.31 74.43 70.72z"/>
    <path fill="#affff7" d="M24.9 18.42c-11.57.92-19.98 5.83-23 13.13 3.28 8.58 12.65 15.98 23 13.05 24.54-6.95 47.9 16.13 47.9 26.06 0 .28.3.86.37.1-1.75-19.3-19.77-54.62-48.26-52.34z" data-name="shade" opacity=".4"/>
    <g>
      <path fill="#96caed" d="M130.61 18.1c-.35 8.72-9.08 13.56-22.26 12.4-14.33-1.26-23.01 16.85-24.94 15.08-1.52-5.93 3.22-36.43 21.44-43.85 14.5-5.9 26.26 4.2 25.76 16.36z" data-name="drop"/>
      <path fill="#affff7" d="M127.8 25.2c-3.04-8.87-13.03-14.67-24.83-9.86C92 19.8 86.27 32.69 83.51 43.49a8.67 8.67 0 00-.11 2.09c1.92 1.77 10.6-16.34 24.93-15.08 8.96.79 15.85-1.2 19.47-5.3z" data-name="shade" opacity=".4"/>
    </g>
  </g>
  <g>
    <g fill="none" stroke="#000" stroke-miterlimit="10" stroke-width=".5">
      <path d="M45.4 179.13a106.9 106.9 0 0010.02-7.3"/>
      <path stroke-linecap="round" d="M68.61 174.1c-3.81 2.98-10.7.92-13.68-2.89s-3.27-10.35.54-13.33"/>
    </g>
    <ellipse cx="81.14" cy="164.38" fill="#96caed" rx="7.98" ry="3.71"/>
  </g>
</svg>
