<svg xmlns="http://www.w3.org/2000/svg" data-name="Layer 1" viewBox="0 0 1920 444.7">
  <path fill="#96caed" d="M1761.86 13.34c-168.74-25.23-300.92-11.89-418.12 16.8-207.62-44.64-362.78-33.84-497.6-2.15C711.21-2.36 562.1-11.7 372.5 33.4 226.12.44 105.58-5.17 0 4.82V444.7h1920V2.83a1008.25 1008.25 0 00-158.14 10.51z"/>
  <path fill="#affff7" d="M1761.86 13.34c-168.74-25.23-300.92-11.89-418.12 16.8-207.62-44.64-362.78-33.84-497.6-2.15C711.21-2.36 562.1-11.7 372.5 33.4 226.12.44 105.58-5.17 0 4.82V444.7h1920V2.83a1008.25 1008.25 0 00-158.14 10.51z"/>
</svg>
