<svg xmlns="http://www.w3.org/2000/svg" data-name="Layer 1" viewBox="0 0 635.9 238">
  <path fill="#ffd400" d="M270.98 55.1l-1.03-8.7c5.24 2.48 8.2 12.23 4.9 13.17-3.22.67-3.87-4.48-3.87-4.48z"/>
  <path fill="#96caed" d="M273.66 99.87c-7.39-10.3-13.3-20.45-15.31-32.73-.1-.57.77-.98 1.01-.45 3.62 7.83 14.78 2.03 20.83-3.96.32-.32.89.13.67.53-11.84 21.63-7.2 36.61-7.2 36.61z"/>
  <path fill="#2791d8" d="M46.01 32.02c-7.76 71.22 58.2 69.99 58.2 69.99l47.9.25c17.71.48 19.6 21.73 1.82 22.39-33.47 1.1-37.35 4.45-58.06-6.56 4.84 22.03 26.36 22.57 26.36 22.57l43.83-.46c19.62.46 22.85 23.32 5.13 23.64 0 0-35.25 3.44-50.04-8.12 5.85 17.22 18.9 28.89 44.1 31.19 70.18 0 51.9-64.54 22.59-61.85 22.58-44.37-35.1-44.39-35.1-44.39l-52.03-.24c-26.08-.81-46.36-18.83-54.7-48.4z"/>
  <path fill="#1f74ad" d="M245.05 3.85C231.41-2 209.96-4.09 185.33 19.31c-8.65 8.64-12.82 18.34-12.42 28.83.61 15.65 11.6 33.37 30.92 49.9.47.4.75.65.86.76 25.3 25.84 24.8 48.4 19.92 62.78-6.9 20.34-25.74 33.5-39.97 35.54a89.94 89.94 0 01-12.46.93c-40.66 0-60.86-31.24-77.37-56.78-6.84-10.58-13.3-20.58-20.35-27.03-19.47-17.86-39.21-22.66-52.33-23.55A71.41 71.41 0 000 92.49c7.09.03 31.37 1.5 49.45 19.06 15.25 14.83 22.45 37.24 21.42 66.62 26.05 53.08 82.98 66.85 125.77 53 34-11 67-42.24 57.62-96.91-5.23-24.23-21.9-40.55-36.6-54.96-17.72-17.34-31.72-31.06-18.03-51.2 10.48-14.43 28.55-16.4 41-10.88 9.95 4.42 19.37 15.06 15.9 31.66-1 10.8 1.26 17.1 6.52 18.22 7.13 1.5 17.13-6.7 18.34-10.3h.01a35.05 35.05 0 00.83-7.95v-.15c0-9.91-14.48-35.1-37.18-44.85zm31.43 53.57c-.1 1.31-.64 2.15-1.56 2.4a3.2 3.2 0 01-.63.07 2.49 2.49 0 01-1.5-.48c-1.66-1.18-2.06-4.16-2.07-4.29l-1.1-9.17.44.2c4.1 1.96 6.68 8.09 6.42 11.27z"/>
  <g>
    <path fill="#2791d8" d="M430.75 187.8q4.46 0 4.46 4.08 0 3.06-4.13 4.64-7.11 2.87-7.11 10.3a11.26 11.26 0 004.13 9.27 14.18 14.18 0 009.02 2.79 28.15 28.15 0 0019.1-7.15 14.7 14.7 0 005.13-11.5 19.17 19.17 0 00-1.5-7.7 87.84 87.84 0 00-4.79-8.9q-4.96-8.36-8.35-15.22a33.22 33.22 0 01-3.8-14.94q0-17.35 15.3-32.47a71.96 71.96 0 0117.86-12.8 35.35 35.35 0 0115.63-4 12.36 12.36 0 018.27 2.88 11.53 11.53 0 014.13 9.37q0 9.28-8.93 20.04a71.56 71.56 0 01-19.68 16.52q-5.63 3.15-8.52 3.15a4.36 4.36 0 01-3.39-1.76 4.13 4.13 0 01-1-2.7q0-3.42 5.47-5.56a55.64 55.64 0 0017.7-11.22q9.92-9.28 9.92-16.24a5.43 5.43 0 00-1.99-4.36 5.66 5.66 0 00-3.72-1.3q-5.7 0-14.3 4.92a50.96 50.96 0 00-18.2 16.98q-5.79 9-5.79 17.53a30.28 30.28 0 003.06 12.8q2.56 5.3 6.53 11.97 3.8 6.4 6.46 11.88a28.68 28.68 0 013.06 12.15q0 10.95-11.17 19.39a35.2 35.2 0 01-21.5 7.05q-11.83 0-18.53-7.33a18.51 18.51 0 01-5.04-12.8 19.82 19.82 0 014.8-13.55 18.46 18.46 0 016.86-5 11.82 11.82 0 014.55-1.21zM508.95 197.88q-7.11 10.76-10.5 14.84a70.12 70.12 0 01-7.28 7.8q-3.47 2.87-6.45 2.87-2.9 0-4.47-3.25a12.37 12.37 0 01-1.24-5.56q0-10.11 10.75-27.83 9.76-16.05 14.48-16.05a3.04 3.04 0 012.23 1.2 3.78 3.78 0 011 2.6q0 2.04-3.23 5.66a84 84 0 00-11.91 17.16q-4.3 8.17-4.3 10.67 0 1.86 1.49 1.86 4.96 0 21.5-24.13 5.37-7.79 6.53-9a6.18 6.18 0 014.38-2.22 3.8 3.8 0 012.57.93 2.78 2.78 0 01.9 1.95q0 1.1-3.96 9.37-9.02 17.8-9.02 24.02 0 2.42 1.74 2.42 2.98 0 8.19-7.7a87.36 87.36 0 009.18-18.37 73.95 73.95 0 003.22-12.71q1.66-9 6.62-9 2.8 0 2.81 3.52 0 12.16-12.07 33.4-12.58 22.18-21.17 22.17-6.37 0-6.37-8.8 0-7.25 4.38-17.82zM567.26 164.46a2.79 2.79 0 012.32 1.21 3.74 3.74 0 01.66 2.04q0 1.67-2.4 5.57-8.6 14.94-12.24 24.58-3.89 9.93-6.86 20.41-1.33 4.64-4.14 4.64a3.04 3.04 0 01-2.65-1.48 4.23 4.23 0 01-.9-2.6q0-2.78 5.29-18.56 4.13-12.43 13.4-27.46a51.16 51.16 0 014.46-6.58 4.13 4.13 0 013.06-1.77zm15.71-34.41q3.72 0 3.72 4.26 0 3.9-3.63 8.63-3.48 4.55-6.7 4.55a3.08 3.08 0 01-2.57-1.3 4.52 4.52 0 01-.99-2.97q0-4.45 4.38-9.46 3.23-3.71 5.8-3.71zM588.6 190.84a125.33 125.33 0 0112.24-12.8q8.02-6.96 10.75-6.96a3.02 3.02 0 012.31 1.12 3.29 3.29 0 01.91 2.22q0 1.77-2.9 5.75a53.09 53.09 0 00-6.2 10.77q19.36-21.8 26.47-21.8a3.6 3.6 0 012.56 1.01 3.7 3.7 0 011.16 2.79q0 2.6-3.55 6.68-15.63 18.09-15.63 29.69 0 4.73 1.48 6.77l2.15 3.06a3.33 3.33 0 01.67 2.13 4.3 4.3 0 01-1.08 2.79 3.62 3.62 0 01-2.81 1.48q-2.73 0-5.05-3.9a20.7 20.7 0 01-2.8-10.94 38.03 38.03 0 014.3-17.07 70.37 70.37 0 014.95-8.17 85.52 85.52 0 00-14.3 16.33 97.6 97.6 0 00-8.93 15.77q-1.9 4.18-4.47 4.18-2.81 0-2.81-3.53 0-3.8 4.63-15.68a150.14 150.14 0 016.53-14.28q-14.14 12.24-21.25 33.2-1.74 4.65-4.63 4.65a2.56 2.56 0 01-2.15-1.12 4.12 4.12 0 01-.91-2.69q0-5.47 5.46-19.76a170.51 170.51 0 0112.9-27.18q4.96-8.44 7.69-8.44 2.48 0 2.48 2.97 0 1.3-3.06 6.49a118.64 118.64 0 00-7.11 14.47z"/>
    <path fill="#1f74ad" d="M276.03 196.2q-7.12 10.76-10.5 14.84a70.12 70.12 0 01-7.28 7.79q-3.48 2.88-6.45 2.88-2.9 0-4.47-3.25a12.37 12.37 0 01-1.24-5.57q0-10.1 10.75-27.83 9.76-16.05 14.47-16.05a3.04 3.04 0 012.24 1.2 3.78 3.78 0 01.99 2.6q0 2.05-3.23 5.66a84 84 0 00-11.9 17.17q-4.3 8.16-4.3 10.67 0 1.85 1.48 1.85 4.96 0 21.5-24.12 5.38-7.8 6.54-9a6.18 6.18 0 014.38-2.23 3.8 3.8 0 012.56.93 2.78 2.78 0 01.91 1.95q0 1.11-3.97 9.37-9.01 17.81-9.01 24.03 0 2.41 1.74 2.41 2.97 0 8.18-7.7a87.36 87.36 0 009.18-18.37 73.96 73.96 0 003.23-12.7q1.65-9 6.62-9 2.8 0 2.8 3.52 0 12.15-12.07 33.4-12.57 22.17-21.17 22.17-6.37 0-6.37-8.81 0-7.24 4.39-17.82zM336.44 208.02a71.34 71.34 0 01-5.38 9.1q-5.21 7.23-10.34 7.23-4.46 0-6.94-4.73a15.67 15.67 0 01-1.58-7.24q0-10.3 5.8-22.73 6.44-13.82 15.54-21.24 5.96-4.83 11.5-4.83a7.7 7.7 0 015.79 2.42 6.9 6.9 0 011.98 4.82 16.97 16.97 0 01-1.4 5.66 6.64 6.64 0 011.23 3.43q0 1.95-2.31 6.4a75.9 75.9 0 00-4.8 12.06q-2.56 7.98-2.56 12.8a9.72 9.72 0 002.07 6.4 15.18 15.18 0 003.39 2.14 4.05 4.05 0 012.06 3.9 3.81 3.81 0 01-1.15 2.87 4.02 4.02 0 01-2.9 1.2q-4.46 0-7.69-4.44a14.98 14.98 0 01-2.65-9.1q0-1.85.34-6.12zm10.33-30.52a9.1 9.1 0 00-2.15-3.02 3.8 3.8 0 00-2.48-.97q-6.28 0-13.64 12.34-8.11 13.64-8.1 23.1a6.49 6.49 0 00.78 3.52 2.62 2.62 0 002.35 1.21q3.97 0 9.27-9.46a163.58 163.58 0 007.36-15.31 84.21 84.21 0 014.21-8.72 12.93 12.93 0 012.4-2.7zM381.8 183.83q1.07-1.11 2.06-2.23 17.28-18.92 23.16-18.92 3.22 0 3.22 3.99 0 2.78-2.9 6.58-15.79 20.7-15.79 36.46a20.37 20.37 0 002.48 9.75 7.78 7.78 0 011.16 3.34 3.05 3.05 0 01-1 2.13 3.24 3.24 0 01-2.56 1.3q-3.39 0-5.7-4.83a24.85 24.85 0 01-2.23-11.04q0-12.52 8.43-27.73-11.25 8.07-20.92 28.57-2.48 4.92-5.3 4.92a2.86 2.86 0 01-2.31-1.12 4.83 4.83 0 01-1.16-3.34q0-5 10.17-26.25 5.46-11.5 8.6-16.7 3.15-5.1 5.38-5.1a2.81 2.81 0 012.07 1.11 4.34 4.34 0 011.16 2.97q0 2.04-2.4 5.84a102.07 102.07 0 00-5.63 10.3z"/>
  </g>
</svg>
