<?xml-stylesheet type="text/css" href="../../../css/2-modules/modules.css"?>
<svg 
xmlns="http://www.w3.org/2000/svg" 
viewBox="0 0 250 80.38"
data-name="water-puddle" 
width="100%"
>
  <defs>
    <linearGradient id="a" x2="250" y1="40.19" y2="40.19" gradientUnits="userSpaceOnUse">
      <stop offset="0" stop-color="#affff7"/>
      <stop offset=".14" stop-color="#abf7f5"/>
      <stop offset=".36" stop-color="#a1e1f1"/>
      <stop offset=".54" stop-color="#96caed"/>
      <stop offset=".66" stop-color="#93c8ec"/>
      <stop offset=".74" stop-color="#8bc2e7"/>
      <stop offset=".81" stop-color="#7cb7df"/>
      <stop offset=".87" stop-color="#66a8d3"/>
      <stop offset=".93" stop-color="#4b94c5"/>
      <stop offset=".98" stop-color="#2a7cb3"/>
      <stop offset="1" stop-color="#1f74ad"/>
    </linearGradient>
    <linearGradient id="b" x1="11.41" x2="249.76" y1="40.5" y2="40.5" gradientUnits="userSpaceOnUse">
      <stop offset="0" stop-color="#affff7"/>
      <stop offset=".14" stop-color="#abf7f5"/>
      <stop offset=".36" stop-color="#a1e1f1"/>
      <stop offset=".54" stop-color="#96caed"/>
      <stop offset=".69" stop-color="#95c7eb"/>
      <stop offset=".79" stop-color="#93bfe6"/>
      <stop offset=".88" stop-color="#8eb0dc"/>
      <stop offset=".96" stop-color="#889bcf"/>
      <stop offset="1" stop-color="#838bc5"/>
    </linearGradient>
    <linearGradient id="c" x1="94.54" x2="239.31" y1="36.37" y2="36.37" gradientUnits="userSpaceOnUse">
      <stop offset="0" stop-color="#affff7" stop-opacity=".75"/>
      <stop offset=".36" stop-color="#affff7" stop-opacity=".74"/>
      <stop offset=".49" stop-color="#affff7" stop-opacity=".72"/>
      <stop offset=".58" stop-color="#affff7" stop-opacity=".67"/>
      <stop offset=".61" stop-color="#affff7" stop-opacity=".65"/>
      <stop offset=".68" stop-color="#acf6f3" stop-opacity=".65"/>
      <stop offset=".78" stop-color="#a2dde8" stop-opacity=".64"/>
      <stop offset=".9" stop-color="#93b4d7" stop-opacity=".62"/>
      <stop offset="1" stop-color="#838bc5" stop-opacity=".6"/>
    </linearGradient>

    <clipPath  xmlns="http://www.w3.org/2000/svg" id="clip-path">
      <path fill="url(#a)" d="M250 38.8c.12 6.99-37.65 14.48-45.76 24.15-10.15 12.09-65.84 17.74-83.2 17.42-9.82-.18-79.2.63-102.93-9.79-64.2-28.19 62.96-38.47 62.96-42.94 0-4.32-94.94-8.82-40.12-21.48C71.87.69 95.81.08 121.05 0c11.07-.03 62.55 1.58 79.73 5.89 37 9.29 1.23 13.75 4.24 15.71 10.37 6.74 44.74 3.37 44.98 17.2z"/>
    </clipPath> 
  </defs>
  <g opacity=".6">
    <g xmlns="http://www.w3.org/2000/svg" clip-path="url(#clip-path)">
      <image class="image water-puddle" xlink:href="../../jpg/compressed/water_puddle.jpg" xmlns:xlink="http://www.w3.org/1999/xlink"/>
    </g> 
    <path fill="#eef6fc" d="M43.59 40.87c-8.46.7-14.93 4.46-14.93 9.02s6.47 8.32 14.93 9.02c-.92.08-1.87.12-2.83.12-9.81 0-17.77-4.1-17.77-9.14s7.96-9.15 17.77-9.15c.96 0 1.91.04 2.83.13z"/>
    <path fill="url(#b)" d="M205.5 21.84c-2.44-2.56 30.15-6.21-1.86-15.18C184.97 1.42 141.5.83 130.6.86c-24.84.07-48.42.68-78.86 6.06-53.98 12.46 39.5 16.9 39.5 21.15 0 4.4-125.21 14.53-62 42.28C52.6 80.61 120.93 80.42 130.6 80c21.31-.94 57.75-3.2 70.56-14.36 20.02-17.46 48.6-17.95 48.6-27.18 0-13.76-39.36-11.5-44.24-16.6zM192.4 62.72c-4.62 6.74-38.33 11.55-64.57 5.32-72.25-17.16-4.74-32.44-4.74-36.9 0-4.33-51.48-17.66-12.76-25.22 30.92-5.46 59.6-5.4 78.6-.26 36.84 9.95 2.04 12.88 4.25 15.71 3.3 4.24 44.97 2.41 44.97 17.19 0 7-38.63 13.74-45.75 24.16z" opacity=".6"/>
    <path fill="url(#c)" d="M239.31 38.54c0 7-38.94 13.74-46.13 24.16-4.65 6.74-38.65 11.61-65.1 5.32-72.58-17.27-4.77-32.43-4.77-36.9 0-4.33-51.83-17.3-12.87-25.21C141.62.44 170.53.5 189.7 5.64c37.14 9.95 2.05 12.88 4.28 15.71 3.34 4.24 45.34 2.41 45.34 17.2z"/>
    <path fill="#eef6fc" d="M185.1 17.63c4.26-.71 7.31-2.68 7.31-5 0-2.55-3.7-4.7-8.66-5.2a20.26 20.26 0 012.26-.12c6.02 0 10.92 2.32 10.92 5.17s-4.9 5.17-10.92 5.17c-.31 0-.61 0-.91-.02z"/>
  </g>
  
</svg>
