<?xml-stylesheet type="text/css" href="../../../css/2-modules/modules.css"?>
<svg 
id="svg-shapes"
xmlns="http://www.w3.org/2000/svg" 
xmlns:xlink="http://www.w3.org/1999/xlink" 
width="26.038" 
height="26.038" 
viewBox="0 0 26.038 26.038"
>
    <g id="instagram" transform="translate(1.5 1.5)">
        <path class="outer" d="M8.759,3H20.278a5.759,5.759,0,0,1,5.759,5.759V20.278a5.759,5.759,0,0,1-5.759,5.759H8.759A5.759,5.759,0,0,1,3,20.278V8.759A5.759,5.759,0,0,1,8.759,3Z" transform="translate(-3 -3)" stroke-linecap="round" stroke-linejoin="round" stroke-width="3" fill="none" stroke="#1F74AD"/>
        <path class="inner-big" d="M23.063,16.653A5.529,5.529,0,1,1,18.4,11.995,5.529,5.529,0,0,1,23.063,16.653Z" transform="translate(-6.032 -5.988)" stroke-linecap="round" stroke-linejoin="round" stroke-width="3" fill="none" stroke="#1F74AD"/>
        <path class="inner-small" d="M26.25,9.75h0" transform="translate(-8.396 -4.567)" stroke-linecap="round" stroke-linejoin="round" stroke-width="3" fill="none" stroke="#1F74AD"/>
    </g>
</svg>