<svg xmlns="http://www.w3.org/2000/svg" viewBox="0 0 250 250">
  <path fill="#ff3e5b" d="M67.9 154.41l68.72-44.46a36.09 36.09 0 00-16.77-4.49 39.64 39.64 0 00-30.57 12.5 13.98 13.98 0 01-14.33 4.07 13.81 13.81 0 01-6.64-22.99 66.76 66.76 0 0141.48-20.9c29-3.44 55.73 10.33 69.04 35.39 1.64 3.07 2.88 6.35 4.22 9.34-7.01 1.59-13.8 2.82-20.4 4.68-10.38 2.93-19.85 7.87-28.88 13.62-4.4 2.8-8.79 5.6-13.15 8.44-11.03 7.2-23.3 9.12-36.26 8.25a51.75 51.75 0 01-16.45-3.45z"/>
  <path fill="#1c699c" d="M196.95 160.08a72.9 72.9 0 00-41.73 12.2c-6.17 4.01-12.36 8-18.74 11.68-15.53 8.94-32.53 11.88-50.36 11.54-19.7-.38-37.33-6.5-53.4-17.44-8.48-5.76-17.14-11.2-26.99-14.65A8.84 8.84 0 01.57 151.9a9.2 9.2 0 0111.94-5.57 157.06 157.06 0 0118.21 8.46c6.16 3.38 11.94 7.41 17.87 11.19 15.53 9.9 32.72 12.12 50.77 10.56 12.7-1.1 23.86-5.93 34.48-12.57 8.53-5.33 17.09-10.8 26.2-15.07 15.07-7.09 31.36-8.15 47.86-6.95a87.14 87.14 0 0136.94 10.94c3.75 2.12 5.63 5.73 5.06 9.57-.54 3.63-3.36 7.03-7.18 7.53a12.55 12.55 0 01-7.14-1.08c-11.68-6.32-24.2-8.93-38.63-8.82z"/>
  <path fill="#affff7" d="M196.95 187.08a72.9 72.9 0 00-41.73 12.2c-6.17 4.02-12.36 8-18.74 11.68-15.53 8.95-32.53 11.88-50.36 11.54-19.7-.38-37.33-6.5-53.4-17.43-8.48-5.77-17.14-11.21-26.99-14.65a8.84 8.84 0 01-5.16-11.53 9.2 9.2 0 0111.94-5.57 157.06 157.06 0 0118.21 8.46c6.16 3.38 11.94 7.41 17.87 11.2 15.53 9.9 32.72 12.1 50.77 10.55 12.7-1.1 23.86-5.93 34.48-12.56 8.53-5.34 17.09-10.8 26.2-15.08 15.07-7.09 31.36-8.15 47.86-6.94a87.14 87.14 0 0136.94 10.94c3.75 2.11 5.63 5.72 5.06 9.56-.54 3.64-3.36 7.04-7.18 7.54a12.55 12.55 0 01-7.14-1.08c-11.68-6.32-24.2-8.94-38.63-8.83z" data-name="water"/>
  <path fill="#ff3e5b" d="M208.98 110.4c-15.87.01-28.66-12.4-28.67-27.82-.01-15.6 12.66-28.06 28.65-28.15 15.73-.1 28.57 12.43 28.63 27.89.05 15.65-12.6 28.06-28.61 28.08z"/>
</svg>
