<svg xmlns="http://www.w3.org/2000/svg" viewBox="0 0 250 250">
  <path fill="#ff3e5b" d="M80.17 146.1l56.28-44.46a25.54 25.54 0 00-13.73-4.48c-9.87-.28-18.23 3.92-25.04 12.5-3.23 4.06-7.19 5.5-11.74 4.07-4.4-1.4-7.2-4.88-8.27-10.11a15.21 15.21 0 012.83-12.88c9.23-11.8 20.53-18.97 33.97-20.91 23.76-3.43 45.66 10.33 56.56 35.4 1.34 3.07 2.35 6.34 3.45 9.34-5.74 1.58-11.3 2.82-16.7 4.68-8.5 2.92-16.27 7.87-23.66 13.62-3.6 2.8-7.2 5.6-10.77 8.44-9.04 7.2-19.09 9.12-29.7 8.25a35.89 35.89 0 01-13.48-3.45z"/>
  <path fill="#1c699c" d="M185.87 146.76c-11.81-.32-23.52 3.73-34.18 12.2-5.05 4.02-10.13 8-15.35 11.68-12.72 8.95-26.64 11.88-41.25 11.54-16.14-.38-30.58-6.5-43.74-17.43-6.94-5.76-14.03-11.21-22.1-14.65-3.89-1.66-5.6-6.94-4.23-11.52 1.43-4.74 5.73-7.52 9.78-5.58a119.45 119.45 0 0114.92 8.46c5.04 3.38 9.78 7.42 14.63 11.2 12.72 9.9 26.8 12.11 41.58 10.55 10.4-1.1 19.55-5.93 28.24-12.56 7-5.34 14-10.8 21.46-15.08 12.35-7.09 25.7-8.15 39.2-6.94a62.24 62.24 0 0130.26 10.94 9.95 9.95 0 014.15 9.56c-.44 3.64-2.76 7.04-5.88 7.54a8.64 8.64 0 01-5.85-1.08c-9.57-6.32-19.82-8.94-31.64-8.83z"/>
  <path fill="#affff7" d="M185.87 178.78c-11.81-.33-23.52 3.72-34.18 12.2-5.05 4.01-10.13 8-15.35 11.68-12.72 8.94-26.64 11.88-41.25 11.53-16.14-.37-30.58-6.5-43.74-17.43-6.94-5.76-14.03-11.2-22.1-14.65-3.89-1.66-5.6-6.94-4.23-11.52 1.43-4.74 5.73-7.51 9.78-5.57a119.43 119.43 0 0114.92 8.46c5.04 3.38 9.78 7.41 14.63 11.19 12.72 9.9 26.8 12.11 41.58 10.56 10.4-1.1 19.55-5.94 28.24-12.57 7-5.33 14-10.8 21.46-15.08 12.35-7.08 25.7-8.14 39.2-6.94a62.24 62.24 0 0130.26 10.94 9.95 9.95 0 014.15 9.57c-.44 3.63-2.76 7.03-5.88 7.53a8.64 8.64 0 01-5.85-1.08c-9.57-6.32-19.82-8.93-31.64-8.82z" data-name="water"/>
  <path fill="#ff3e5b" d="M202.6 102.1c-14.83 0-26.78-12.4-26.79-27.82 0-15.6 11.83-28.06 26.77-28.15 14.69-.1 26.7 12.42 26.74 27.88.05 15.66-11.76 28.07-26.72 28.08z"/>
</svg>
