<svg xmlns="http://www.w3.org/2000/svg" xmlns:xlink="http://www.w3.org/1999/xlink" data-name="Layer 1" viewBox="0 0 249.87 189.58">
  <defs>
    <linearGradient id="a" x1="165.07" x2="187.9" y1="51.36" y2="79.94" gradientUnits="userSpaceOnUse">
      <stop offset="0" stop-color="#1f74ad"/>
      <stop offset=".2" stop-color="#2277af"/>
      <stop offset=".39" stop-color="#2d7eb5"/>
      <stop offset=".56" stop-color="#3f8bbe"/>
      <stop offset=".72" stop-color="#599ecc"/>
      <stop offset=".88" stop-color="#79b5de"/>
      <stop offset="1" stop-color="#96caed"/>
    </linearGradient>
    <linearGradient id="c" x1="222.25" x2="200.96" y1="83.09" y2="118.49" gradientUnits="userSpaceOnUse">
      <stop offset="0" stop-color="#1f74ad"/>
      <stop offset=".33" stop-color="#2176ae"/>
      <stop offset=".5" stop-color="#297bb2"/>
      <stop offset=".63" stop-color="#3685ba"/>
      <stop offset=".75" stop-color="#4993c4"/>
      <stop offset=".85" stop-color="#62a4d1"/>
      <stop offset=".94" stop-color="#80bae1"/>
      <stop offset="1" stop-color="#96caed"/>
    </linearGradient>
    <linearGradient id="d" x1="139.9" x2="87.42" y1="138.63" y2="145.11" xlink:href="#a"/>
    <linearGradient id="e" x1="4.31" x2="41.51" y1="129.63" y2="175.73" xlink:href="#a"/>
    <linearGradient id="b" x1="173.53" x2="117.99" y1="197.22" y2="146.8" gradientUnits="userSpaceOnUse">
      <stop offset="0" stop-color="#1f74ad"/>
      <stop offset=".29" stop-color="#277ab1" stop-opacity=".97"/>
      <stop offset=".55" stop-color="#3e8bbe" stop-opacity=".87"/>
      <stop offset=".79" stop-color="#65a7d3" stop-opacity=".7"/>
      <stop offset="1" stop-color="#96caed" stop-opacity=".5"/>
    </linearGradient>
    <linearGradient id="f" x1="182.77" x2="127.23" y1="187.05" y2="136.63" xlink:href="#a"/>
    <linearGradient id="g" x1="193.59" x2="138.05" y1="175.13" y2="124.71" xlink:href="#a"/>
    <linearGradient id="h" x1="202.39" x2="146.85" y1="165.44" y2="115.02" xlink:href="#a"/>
    <linearGradient id="i" x1="212.94" x2="157.4" y1="153.81" y2="103.4" xlink:href="#a"/>
    <linearGradient id="j" x1="209.21" x2="153.67" y1="157.92" y2="107.51" xlink:href="#a"/>
    <linearGradient id="k" x1="216.43" x2="190.37" y1="55.81" y2="82.95" xlink:href="#b"/>
    <linearGradient id="l" x1="226.61" x2="200.55" y1="65.59" y2="92.73" xlink:href="#a"/>
    <linearGradient id="m" x1="235.89" x2="209.82" y1="74.5" y2="101.64" xlink:href="#a"/>
    <linearGradient id="n" x1="242.51" x2="216.45" y1="80.86" y2="108" xlink:href="#a"/>
    <linearGradient id="o" x1="253.14" x2="227.07" y1="91.06" y2="118.2" xlink:href="#a"/>
    <linearGradient id="p" x1="-14.01" x2="9.89" y1="154.66" y2="167.96" xlink:href="#b"/>
    <linearGradient id="q" x1="-7.58" x2="16.32" y1="143.11" y2="156.41" xlink:href="#a"/>
    <linearGradient id="r" x1="-.36" x2="23.55" y1="130.12" y2="143.42" xlink:href="#a"/>
    <linearGradient id="s" x1="-1.76" x2="22.15" y1="132.63" y2="145.93" xlink:href="#a"/>
  </defs>
  <path fill="#96caed" d="M247.97 37.22l-12.71.92c.12.8.88 5.74.11 8.9a7.54 7.54 0 01-.78 2.02 7.66 7.66 0 01-2.3 2.43 58 58 0 01-14.01 7.14 75.15 75.15 0 01-11.3 2.86c-.99.16-1.98.3-3.05.5h-.01c-3.26-.29-12.67-2.22-16.2-7.9-.16-.25-.42-1.37-.72-1.34-.43.04-.86 2.32-.45 4.3.72 3.51 3.76 4.9 3.5 5.32-.49.75-11.8-2.89-15.8-12.32-.2-.45-.52-1.44-.55-1.44-.28.1.4 8.75 5.03 17.17.33.59.62 1.08.82 1.41-11.01 12.3-15.45 17.03-16.32 17.7-.1.07-.72.5-.64.75.09.21.67.16 1.13.14a22.2 22.2 0 013.13.02 114.6 114.6 0 0110.04-8.97c4.33-3.44 8.59-7 12.4-9.3l2.7.68a123 123 0 0121.97 15.76 90.58 90.58 0 0114.3 16.05 83.95 83.95 0 012.15 3.37q1.47 1.89 2.97 3.77l4.17 6.2a30.09 30.09 0 014.46 6.21c1.62 3.03 3.33 6.2 2.41 9.7a8.2 8.2 0 01-1.34 2.84c-3 4-9.43 4.62-13.88 2.96-2.55-.95-2.05-1.75-5.4-3.78-7.06-4.27-10.76-1.6-14.01-5.26-2.5-2.8-1.2-5.32-4.72-8.62a19.59 19.59 0 00-4.05-2.7 49.48 49.48 0 00-8.09-3.64 53.73 53.73 0 01-13.62-7.41 58.8 58.8 0 01.81 20.62c-.6 4.36-1.37 9.36-4.72 14.7a33.78 33.78 0 01-6.06 7.01 109.4 109.4 0 01-17.25 13.21c-18.38 11.28-20.07 10.38-28.31 16.86-3.82 2.98-7.98 5.47-11.87 8.35a22.24 22.24 0 01-7.14 4.05c-2.39.73-5.5 1.79-8.77.53-5.07-1.94-6.58-7.88-6.87-9.03-.6-2.36-.44-4.22-.14-7.55a51.73 51.73 0 011.75-9.02c2.68-8.79 7.59-16.89 11.68-22.63h.01a90.94 90.94 0 016.92-8.65c4.15-4.16 10.17-10.91 20.36-16.18a65.21 65.21 0 017.68-3.37c-3.62-2.91-8.8-6.5-12.44-9.4 23.31-22.02 33.85-48.29 38.86-66.23 3.64-7.81 18.87-28.73 40.44-34.91 4.64-1.33 11.98-3.33 20.63-.81a33.13 33.13 0 0114.56 9.02 37.46 37.46 0 019.95 20.34l.47 4.38a2.05 2.05 0 01-1.89 2.27zM53.74 137.3a363.02 363.02 0 01-6.82 11.6 181.9 181.9 0 01-5.58 8.57c-1.85 2.64-5.64 7.8-9.7 13.21-1.4 1.84-7.95 10.45-15.64 15.37a8.33 8.33 0 01-5.66 1.61 10.65 10.65 0 01-5.12-3.37c-10.55-11.57.07-36.85 3.72-45.17.65-1.46 1.08-2.4 1.14-2.65a132.88 132.88 0 0043.66.83z"/>
  <g fill="#db3a51">
    <path d="M137.5 112.46a65.21 65.21 0 00-7.7 3.34c-10.2 5.23-16.25 11.95-20.42 16.1a90.92 90.92 0 00-6.95 8.62h-.01c-21.82 7.85-40.63 9.58-56.02 8.44 2.96-4.75 5.54-9.25 6.87-11.57.12-.02.25-.03.36-.06a134.12 134.12 0 0057.25-22.78 132.45 132.45 0 0013.53-10.9l.68-.65c3.63 2.93 8.8 6.53 12.4 9.46z" data-name="belly"/>
    <path d="M10.62 136.13c-.06.25-.5 1.2-1.14 2.65a95.87 95.87 0 01-8.94-4.92c2.87.76 6.25 1.56 10.08 2.27z"/>
  </g>
  <path fill="#ff3e5b" d="M164.82 34.26c-.1.46-.27 1.23-.54 2.15-5 17.94-15.54 44.22-38.86 66.22l-.67.65a132.46 132.46 0 01-13.49 10.96 134.12 134.12 0 01-57.16 23l-.36.06a132.88 132.88 0 01-43.66-.83c-3.83-.71-7.2-1.51-10.08-2.27a137.06 137.06 0 0128.22-54.65 139.06 139.06 0 0149.25-36.67C115.6 26 150.2 31.61 160.05 33.33c2 .35 3.65.68 4.77.93z" data-name="shell"/>
  <path fill="#db3a51" d="M44.64 129.55h-23c-11.56-.48-9.37-5.33-9.5-10.9s7.53-12.02 14.05-12.02l18.9.45c6.52 0 11.41 4.08 11.41 10.6a11.9 11.9 0 01-11.86 11.87z" opacity=".5"/>
  <path fill="#db3a51" d="M96.52 112.8c-8.34 3.7-16.32 6.82-23.18 8.1-4.16.71-6.87-7.56-7.01-13.13s7.48-10.31 13.36-12.92a79.51 79.51 0 0117.03-5.46c4.27-1.08 11.42 4.08 11.42 10.6 0 6.53-3.55 8.83-11.62 12.81zM123.04 86.43l17.04-14.54a9.69 9.69 0 001.07-13.62 9.69 9.69 0 00-13.62-1.08l-11.66 9.96a12.29 12.29 0 00-1.36 17.27l1.23 1.44a5.2 5.2 0 007.3.57zM19.32 95.76l-1.84-.17c-3.1 0 16.4-21.82 16.4-21.82 1.39-1.07 3.07 2.9 3.07 2.9 10.57 19.6 17.4 18.86-17.64 19.09zM49.9 78.14l-4.99-15.05c1.85-4.17 33.17-21.77 36.2-21.29-1.3 17.62 11.42 30.17 16.78 34.52 1.03.83 1.9 4.08-.33 5.72-3.04 2.23-32.23 9.18-36.8 8.36-4.53-.8-8.27-3.48-10.86-12.26zM128.26 31.3A131.44 131.44 0 0091 37.86c0 16.8 3.44 26.84 11.58 26.84s25.68-21.16 25.68-33.42zM156.01 32.67s-4 17.28-6.69 17.94c-1.44.32-18.9 1.46-13.2-19.55z" data-name="scale" opacity=".5"/>
  <path fill="#1f74ad" d="M235.39 38.64a55.28 55.28 0 01-14.28 1.82c-5.79-.13-8.68-.2-10.65-1.88a4.42 4.42 0 00-2.83-1.35 3.64 3.64 0 00-3.1 1.88 3.72 3.72 0 00.27 3.91c2.74 4.09 19.37 4.06 26.92 3.25 2.4-.26 3.79-.55 3.79-.55" opacity=".5"/>
  <g>
    <path fill="url(#a)" d="M203.69 62a38.63 38.63 0 00-5.1 1.25 40.5 40.5 0 00-5.23 2.11l-4.3 2.19c-3.81 2.3-8.07 5.86-12.4 9.3a114.62 114.62 0 00-10.04 8.97 22.21 22.21 0 00-3.13-.02c-.46.02-1.04.07-1.13-.14-.08-.24.53-.69.64-.76.87-.66 5.31-5.4 16.32-17.69-.2-.34-.5-.82-.82-1.41-4.64-8.42-5.31-17.08-5.03-17.17.04 0 .34.99.54 1.44 4.02 9.43 15.33 13.07 15.81 12.32.26-.42-2.78-1.8-3.5-5.32-.4-1.98.02-4.26.45-4.3.3-.04.56 1.08.72 1.35 3.53 5.67 12.94 7.6 16.2 7.89z"/>
    <g opacity=".5">
      <path fill="url(#c)" d="M179.3 103.66a23.65 23.65 0 00-7.95-14.5c-.92-.78-1.56-1.54-2.05-1.95l4.71-4.46a24.54 24.54 0 004.9 2.57 24.21 24.21 0 002.82.91c5.88 1.54 11.8 3.09 16.65 6.3a35.04 35.04 0 018.25 8.15c.78 1 2.27 3.1 5.21 7.28 3.61 5.12 3.36 4.83 3.6 5.12 5.98 7.3 22.46 9.17 22.46 9.17 1.28.14 3.21.32 5.6.37a14.41 14.41 0 011.16 5.19 9.35 9.35 0 01-.65 2.67c-1.06 3.53-4.85 4.55-7.64 5.29a20.57 20.57 0 01-5.36-.17 5.29 5.29 0 01-1.7-.49 18.85 18.85 0 01-1.66-.92 21.29 21.29 0 00-7.89-4.8 34.72 34.72 0 00-6.1-1.34 6.14 6.14 0 01-4.03-2.62c-1.62-2.23-1.2-3.32-2.82-5.9-1.69-2.67-4.27-4.06-7.34-5.74a38.32 38.32 0 00-7.04-2.9 21.13 21.13 0 01-3.99-1.7c-4.96-2.83-7.47-4.05-9.13-5.53z"/>
      <path fill="url(#d)" d="M154.31 102.74a97.54 97.54 0 01-21.7 31.4c-2.6 2.52-4.56 4.13-5.26 4.72-1.23 1.05-11.8 10.98-16.71 28.72a68.47 68.47 0 00-2.48 19.4 20.96 20.96 0 01-3.13 1.39 16.64 16.64 0 01-5.68 1.2 10.79 10.79 0 01-7.7-4.03 10.56 10.56 0 01-1.78-3.27l-1.1-4.4a34.52 34.52 0 01.3-6.1c5.02-32.77 35.06-52.14 35.72-53.15a75.66 75.66 0 0114.06-6.62c-3.57-3.15-7.36-6.2-10.91-9.36a29.12 29.12 0 018.3-7.63 21.1 21.1 0 017.56-2.87c.4-.08.76-.12.99-.14l-4.14 4.8c.87-.14 1.75-.28 2.65-.4a77.19 77.19 0 0110.48-.67L142.8 103l11.51-.26z" data-name="shade"/>
      <path fill="url(#e)" d="M53.74 137.3c-1.71 3.1-4.09 7.27-7.12 12.08-3.87 6.17-7 10.48-13.14 18.84 0 0-9.3 12.7-18.05 18.19a7.37 7.37 0 01-4.43 1.3c-3.8-.27-6.6-4.37-7.15-5.16a11.82 11.82 0 01-1.1-1.93 159.83 159.83 0 0013.79-15.33 159.14 159.14 0 0016.98-26.57 133.89 133.89 0 0020.22-1.42z" data-name="shade"/>
    </g>
    <ellipse cx="128.26" cy="156.12" fill="url(#b)" rx="4.23" ry="6.39"/>
    <ellipse cx="136.35" cy="144.91" fill="url(#f)" rx="4.24" ry="4.37"/>
    <ellipse cx="151.86" cy="137.25" fill="url(#g)" rx="4.99" ry="7.01"/>
    <ellipse cx="163.61" cy="130.24" fill="url(#h)" rx="2.43" ry="3.5"/>
    <circle cx="173.45" cy="117.97" r="3.64" fill="url(#i)"/>
    <ellipse cx="161.19" cy="114.33" fill="url(#j)" rx="4.85" ry="3.64"/>
    <path fill="url(#k)" d="M195.56 81.84c0 1.68-1.8 3.04-4.04 3.04s-4.05-1.36-4.05-3.04 1.81-3.48 4.05-3.48 4.04 1.8 4.04 3.48z"/>
    <path fill="url(#l)" d="M207.67 89.12a3.73 3.73 0 01-3.76 3.4 3.4 3.4 0 010-6.8 3.73 3.73 0 013.76 3.4z"/>
    <path fill="url(#m)" d="M220.73 93.4a3.07 3.07 0 01-6.11 0c0-1.35 1.36-2.44 3.05-2.44s3.06 1.1 3.06 2.43z"/>
    <ellipse cx="219.69" cy="104.63" fill="url(#n)" rx="4.79" ry="4.11"/>
    <path fill="url(#o)" d="M234.19 114.9c0 1.75-1.74 3.17-3.88 3.17s-3.88-1.42-3.88-3.17a3.9 3.9 0 017.76 0z"/>
    <ellipse cx="6.38" cy="166.01" fill="url(#p)" rx="2.52" ry="4.04"/>
    <path fill="url(#q)" d="M17.52 154.24c0 2.18-2.04 5.2-4.22 5.2s-5.03-3.02-5.03-5.2 3.12-3.95 5.3-3.95a3.95 3.95 0 013.95 3.95z"/>
    <path fill="url(#r)" d="M28.24 144.3c0 1.8-1.34 3.6-2.78 3.6s-2.81-1.85-2.81-3.64 1.16-3.24 2.6-3.24a3.31 3.31 0 013 3.28z"/>
    <path fill="url(#s)" d="M18.65 141.88c0 1.14-1.57 2.58-3.5 2.58s-3.51-1.44-3.51-2.58 1.57-2.07 3.5-2.07 3.5.93 3.5 2.07z"/>
  </g>
  <g>
    <path fill="#eef6fc" d="M221.89 9.76c-6.95 0-14.56 8.5-14.56 15.64 0 2.4 1.41 4.18 3.64 5.42 3.2.38 19.19.32 23.5-.3 8.9-4.92-2.96-20.76-12.58-20.76z"/>
    <circle cx="222.47" cy="20.59" r="3.91" fill="#ff3e5b"/>
  </g>
</svg>
