<?xml-stylesheet type="text/css" href="../../../css/2-modules/modules.css"?>
<svg 
id="water-bubble" 
data-name="animation-space"
xmlns="http://www.w3.org/2000/svg" 
viewBox="0 0 500 500"
width="100%"
>
    <!-- water bubble  -->
    <g data-name="body" id="body">
      <!-- grid for materializing the symbols -->
      <path id="animation-path" d="M125,1a124,124,0,0,1,87.6812,211.6812A124,124,0,1,1,37.3188,37.3188,123.1882,123.1882,0,0,1,125,1m0-1A125,125,0,1,0,250,125,125,125,0,0,0,125,0Z" fill="#17ff30"/> <!-- change opacity  -->
      
      <circle id="main-circle" cx="250.5" cy="250.5" r="250"/>
      <path fill="#96caed" data-name="shadow" class="shadow" d="M271.68 436.92c-79.94-7.58-150.85-58.3-185.39-132.87-34.7-74.95-30.1-152.89 1.34-215.6 2.32-4.63-3.63-9.08-7.14-5.34-61.86 65.93-85.38 167.58-43.3 265.07 33.46 77.5 105.34 131.27 187.4 139.34 72.9 7.18 137-17.87 183-61.43 6.17-5.85-.62-16.26-8.15-12.46-37.2 18.76-80.63 27.76-127.76 23.3z"/>
      <circle data-name="shine-cirlce" class="shine" opacity="0.55" cx="360.07" cy="105.01" r="39.7"/>
      <path data-name="shine-rectangle" class="shine" d="M424.03 339.35h-.25a24.07 24.07 0 01-24-24c11.64-45.32 15.94-89.32 0-129.7a24.07 24.07 0 0124-24h.25c7.53 0 18.43 4.38 24 24 10.22 35.8 11.82 83.03 0 129.7-5.34 15.42-10.8 24-24 24z"/>
    </g>

</svg>
