<svg xmlns="http://www.w3.org/2000/svg" data-name="Layer 1" viewBox="0 0 250 250">
  <circle cx="125" cy="125" r="125" fill="#affff7"/>
  <path fill="#96caed" d="M135.59 218.21c-39.97-3.79-75.43-29.15-92.7-66.44-17.35-37.47-15.04-76.44.67-107.8 1.16-2.3-1.81-4.53-3.56-2.67C9.06 74.27-2.7 125.1 18.35 173.84c16.72 38.75 52.67 65.63 93.7 69.67 36.44 3.59 68.5-8.94 91.5-30.72 3.08-2.92-.31-8.13-4.08-6.23a116.32 116.32 0 01-63.88 11.65z" opacity=".54"/>
  <circle cx="179.79" cy="52.26" r="19.85" fill="#fafdff"/>
  <path fill="#fafdff" d="M211.77 169.43h-.13a12.04 12.04 0 01-12-12c5.82-22.66 7.97-44.67 0-64.86a12.04 12.04 0 0112-12h.13c3.76 0 9.2 2.2 12 12 5.1 17.9 5.9 41.52 0 64.86-2.67 7.7-5.4 12-12 12z"/>
</svg>
