<svg xmlns="http://www.w3.org/2000/svg" viewBox="0 0 152.79 146.1">
  <defs>
    <linearGradient id="a" x1="140.53" x2="35.47" y1="88.9" y2="37.14" gradientUnits="userSpaceOnUse">
      <stop offset="0" stop-color="#96caed"/>
      <stop offset="1" stop-color="#affff7"/>
    </linearGradient>
    <linearGradient id="b" x1="1.1" x2="159.09" y1="92.11" y2="39.5" gradientUnits="userSpaceOnUse">
      <stop offset=".19" stop-color="#affff7"/>
      <stop offset=".22" stop-color="#aaf5f5"/>
      <stop offset=".31" stop-color="#9fddf1"/>
      <stop offset=".4" stop-color="#98cfee"/>
      <stop offset=".47" stop-color="#96caed"/>
    </linearGradient>
    <linearGradient id="c" x1="76.05" x2="99.37" y1="145.81" y2="24.21" gradientUnits="userSpaceOnUse">
      <stop offset=".04" stop-color="#affff7"/>
      <stop offset=".53" stop-color="#96caed"/>
      <stop offset=".78" stop-color="#96caed"/>
    </linearGradient>
  </defs>
  <g data-name="Layer 1">
    <path fill="url(#a)" d="M147.42 58.76a76.97 76.97 0 01-2.85 18.96c-12.24 44.37-55.69 49.46-55.69 49.46-1.85.11-3.71.12-5.56.05-28.98-1.05-56.74-23.4-53.83-66.68.45-3.36 1.05-6.51 1.73-9.46 6.7-29.17 22.96-38.82 24.64-39.75a1.6 1.6 0 00.15-.1S70.91-1.58 99.23.17c24.1 1.5 48.86 24.47 48.19 58.6z" opacity=".58" style="mix-blend-mode:multiply"/>
    <path fill="url(#b)" d="M102.32 118.28a88.94 88.94 0 01-20.83 9.84c-13.33 4.3-30.91 6.23-46.1-4.53a79.47 79.47 0 01-6.72-5.34C5.44 97.82.56 70.45.56 70.45s-8.88-34.76 44.2-55.67q4.8-1.5 9.27-2.57c34.44-8.24 55.24 2.22 65.55 19.53 16.28 27.34 6.4 71.75-17.26 86.54z" opacity=".59"/>
    <path fill="url(#c)" d="M76.96 145.82s-28.07-2.13-43.9-27.32a58.41 58.41 0 01-3.34-6.02c-14.81-30.9 3.4-59.03 3.4-59.03s.2-.45.65-1.22c3.37-5.88 20.61-31 67.35-27.69A88.62 88.62 0 01123.96 32c16.9 8.4 23.47 20.27 26.02 27.9a29.65 29.65 0 011.6 7.54c9.56 40.17-39.76 82.56-74.62 78.38z" opacity=".45"/>
  </g>
</svg>
